<?xml version="1.0" encoding="UTF-8" standalone="no"?>
<!-- Generator: Adobe Illustrator 15.0.0, SVG Export Plug-In . SVG Version: 6.00 Build 0)  -->

<svg
   xmlns:dc="http://purl.org/dc/elements/1.1/"
   xmlns:cc="http://creativecommons.org/ns#"
   xmlns:rdf="http://www.w3.org/1999/02/22-rdf-syntax-ns#"
   xmlns:svg="http://www.w3.org/2000/svg"
   xmlns="http://www.w3.org/2000/svg"
   xmlns:sodipodi="http://sodipodi.sourceforge.net/DTD/sodipodi-0.dtd"
   xmlns:inkscape="http://www.inkscape.org/namespaces/inkscape"
   version="1.1"
   id="Layer_1"
   x="0px"
   y="0px"
   width="64px"
   height="64px"
   viewBox="0 0 64 64"
   enable-background="new 0 0 64 64"
   xml:space="preserve"
   inkscape:version="0.48.4 r9939"
   sodipodi:docname="MouseLeft.svg"><metadata
   id="metadata21"><rdf:RDF><cc:Work
       rdf:about=""><dc:format>image/svg+xml</dc:format><dc:type
         rdf:resource="http://purl.org/dc/dcmitype/StillImage" /><dc:title /></cc:Work></rdf:RDF></metadata><defs
   id="defs19" /><sodipodi:namedview
   pagecolor="#ffffff"
   bordercolor="#666666"
   borderopacity="1"
   objecttolerance="10"
   gridtolerance="10"
   guidetolerance="10"
   inkscape:pageopacity="0"
   inkscape:pageshadow="2"
   inkscape:window-width="1282"
   inkscape:window-height="886"
   id="namedview17"
   showgrid="false"
   inkscape:zoom="3.6875"
   inkscape:cx="-10.305085"
   inkscape:cy="32"
   inkscape:window-x="104"
   inkscape:window-y="136"
   inkscape:window-maximized="0"
   inkscape:current-layer="g3" />
<g
   id="g3">
	<g
   id="g5"
   style="fill:#4d4d4d;stroke:#4d4d4d">
		<path
   fill="#020202"
   d="M32.854,20.028c-0.015-1.274,0.576-2.269,1.151-3.236c0.758-1.278,1.543-2.6,0.997-4.417    c-0.555-1.667-1.607-2.485-2.539-3.212c-1.254-0.973-2.159-1.676-1.687-4.343l0.041-0.229l-1.35-0.238L29.427,4.58    c-0.615,3.484,0.878,4.643,2.195,5.666c0.85,0.663,1.653,1.288,2.072,2.542c0.366,1.224-0.18,2.143-0.869,3.306    c-0.641,1.081-1.366,2.3-1.349,3.933c-6.837,0.007-13.823,0.291-13.823,24.59c0,10.951,8.799,15.032,14.347,15.032    c5.545,0,14.347-4.081,14.347-15.032C46.347,20.347,39.228,20.048,32.854,20.028z M32.685,21.399    c5.643,0.012,10.927,0.236,12.063,16.153c-3.86,1.805-7.916,2.765-12.063,2.86v-2.966c0.845-0.162,1.481-0.909,1.481-1.782v-8.956    c0-0.876-0.637-1.621-1.481-1.784V21.399z M31.658,26.254h0.685c0.249,0,0.453,0.205,0.453,0.454v8.956    c0,0.249-0.204,0.449-0.453,0.449h-0.685c-0.249,0-0.452-0.2-0.452-0.449v-8.956C31.206,26.459,31.409,26.254,31.658,26.254z     M31.313,21.399v3.525c-0.845,0.163-1.479,0.91-1.479,1.784v8.956c0,0.873,0.634,1.62,1.479,1.782v2.966    c-6.311-0.148-10.905-2.252-12.063-2.839C20.381,21.633,25.668,21.411,31.313,21.399z M32,58.274    c-5.016,0-12.976-3.707-12.976-13.658c0-1.983,0.045-3.853,0.134-5.563c2.003,0.929,6.696,2.74,12.868,2.74    c4.394,0,8.704-0.934,12.813-2.771c0.089,1.718,0.135,3.6,0.135,5.595C44.974,54.567,37.016,58.274,32,58.274z"
   id="path7"
   style="fill:#4d4d4d;stroke:#4d4d4d" />
	</g>
	
	
<path
   style="fill:#ffffff;stroke:#ffffff;stroke-width:0.27118644"
   d="m 32.922034,38.950793 c 0,-1.135825 0.114919,-1.458045 0.677966,-1.900938 l 0.677966,-0.533288 0,-5.28078 c 0,-5.271249 -0.0012,-5.282003 -0.677966,-5.958745 -0.557439,-0.557439 -0.677966,-0.940935 -0.677966,-2.157165 l 0,-1.479199 1.535487,0 c 5.657554,0 8.584338,3.728529 9.71855,12.380791 0.498434,3.802265 0.50348,3.525731 -0.0676,3.704572 -0.261017,0.08174 -1.528694,0.512016 -2.817059,0.956167 -2.037206,0.702306 -4.048032,1.113044 -7.488026,1.529528 l -0.881356,0.106707 0,-1.36765 z"
   id="path3768"
   inkscape:connector-curvature="0" /><path
   style="fill:#ffffff;stroke:#ffffff;stroke-width:0.27118644"
   d="m 31.485081,35.842143 c -0.104591,-0.104591 -0.190166,-2.231347 -0.190166,-4.726123 0,-3.983994 0.05502,-4.557071 0.452127,-4.709456 0.24867,-0.09542 0.556802,-0.06882 0.684738,0.05912 0.127937,0.127936 0.199056,2.296481 0.158043,4.818988 -0.06319,3.886405 -0.13867,4.598683 -0.494572,4.667009 -0.231003,0.04435 -0.505579,-0.0049 -0.61017,-0.109533 l 0,0 z"
   id="path3770"
   inkscape:connector-curvature="0" /><path
   style="fill:#ffffff;stroke:#ffffff;stroke-width:0.27118644"
   d="m 30.440433,57.945316 c -3.064053,-0.42113 -6.77723,-2.474953 -8.457621,-4.67806 -2.1588,-2.830333 -3.113918,-6.737716 -2.769592,-11.330385 l 0.193121,-2.575872 2.07988,0.735628 c 3.527026,1.247466 6.337701,1.719068 10.215474,1.71405 4.171771,-0.0054 6.642981,-0.38868 10.25836,-1.591058 2.178973,-0.724668 2.692193,-0.815856 2.813444,-0.499883 0.08157,0.21256 0.08664,2.119864 0.01127,4.238453 -0.106217,2.98581 -0.266531,4.212938 -0.712935,5.457208 -1.450217,4.042206 -4.401118,6.844156 -8.437938,8.012017 -2.314747,0.669661 -3.34314,0.772215 -5.193465,0.517902 z"
   id="path3772"
   inkscape:connector-curvature="0" /></g>
<path
   style="fill:#66CCFF;stroke:#66CCFF;stroke-width:0.27118643999999997"
   d="m 28.740556,40.063682 c -2.457795,-0.284995 -5.291522,-0.976881 -7.479539,-1.826212 -0.969492,-0.376332 -1.792939,-0.704961 -1.829884,-0.730287 -0.152564,-0.104584 0.766016,-6.242541 1.16801,-7.804656 1.421191,-5.522631 4.304477,-8.061849 9.154241,-8.061849 l 1.541531,0 0,1.627119 c 0,1.237125 -0.09381,1.627118 -0.391402,1.627118 -0.215271,0 -0.581373,0.271221 -0.813559,0.602714 -0.345889,0.493826 -0.422157,1.527524 -0.422157,5.721706 l 0,5.118992 0.813559,0.759978 c 0.675846,0.631335 0.813559,0.971083 0.813559,2.007108 0,0.835921 -0.111771,1.235378 -0.338983,1.211489 -0.18644,-0.0196 -1.18336,-0.133551 -2.215376,-0.25322 l 0,0 z"
   id="path3766"
   inkscape:connector-curvature="0" /></svg>