<?xml version="1.0" encoding="UTF-8" standalone="no"?>
<!-- Generator: Adobe Illustrator 16.0.0, SVG Export Plug-In . SVG Version: 6.00 Build 0)  -->

<svg
   xmlns:dc="http://purl.org/dc/elements/1.1/"
   xmlns:cc="http://creativecommons.org/ns#"
   xmlns:rdf="http://www.w3.org/1999/02/22-rdf-syntax-ns#"
   xmlns:svg="http://www.w3.org/2000/svg"
   xmlns="http://www.w3.org/2000/svg"
   xmlns:sodipodi="http://sodipodi.sourceforge.net/DTD/sodipodi-0.dtd"
   xmlns:inkscape="http://www.inkscape.org/namespaces/inkscape"
   version="1.1"
   id="Capa_1"
   x="0px"
   y="0px"
   width="76.663582"
   height="140.44"
   viewBox="0 0 76.663581 140.44"
   xml:space="preserve"
   inkscape:version="0.48.4 r9939"
   sodipodi:docname="TouchTilt.svg"><metadata
   id="metadata3364"><rdf:RDF><cc:Work
       rdf:about=""><dc:format>image/svg+xml</dc:format><dc:type
         rdf:resource="http://purl.org/dc/dcmitype/StillImage" /><dc:title /></cc:Work></rdf:RDF></metadata><defs
   id="defs3362" /><sodipodi:namedview
   pagecolor="#ffffff"
   bordercolor="#666666"
   borderopacity="1"
   objecttolerance="10"
   gridtolerance="10"
   guidetolerance="10"
   inkscape:pageopacity="0"
   inkscape:pageshadow="2"
   inkscape:window-width="766"
   inkscape:window-height="480"
   id="namedview3360"
   showgrid="false"
   inkscape:zoom="1.6804329"
   inkscape:cx="6.1930652"
   inkscape:cy="74.717535"
   inkscape:window-x="343"
   inkscape:window-y="203"
   inkscape:window-maximized="0"
   inkscape:current-layer="Capa_1"
   fit-margin-top="0"
   fit-margin-left="0"
   fit-margin-right="0"
   fit-margin-bottom="0" />
<g
   id="g3322"
   style="fill:#ffffff"
   transform="translate(-7.9878665e-4,-3.8214145e-7)">
	<path
   style="fill:#ffffff;fill-opacity:1;fill-rule:evenodd"
   d="m 12.622,5.815 c -6.294,0 -11.396,5.102 -11.396,11.395 0,6.293 5.102,11.395 11.396,11.395 6.293,0 11.395,-5.102 11.395,-11.395 0,-6.293 -5.102,-11.395 -11.395,-11.395 z m 0,20.431 c -4.99,0 -9.036,-4.046 -9.036,-9.036 0,-4.989 4.046,-9.035 9.036,-9.035 4.988,0 9.035,4.046 9.035,9.035 0,4.99 -4.047,9.036 -9.035,9.036 z"
   id="path3324"
   inkscape:connector-curvature="0" />
	<path
   style="fill:#ffffff;fill-opacity:1;fill-rule:evenodd"
   d="m 43.793,0 c -6.294,0 -11.396,5.102 -11.396,11.395 0,6.293 5.102,11.395 11.396,11.395 6.293,0 11.395,-5.102 11.395,-11.395 C 55.188,5.102 50.086,0 43.793,0 z m 0,20.43 c -4.99,0 -9.036,-4.046 -9.036,-9.036 0,-4.989 4.046,-9.035 9.036,-9.035 4.988,0 9.035,4.046 9.035,9.035 0,4.99 -4.047,9.036 -9.035,9.036 z"
   id="path3326"
   inkscape:connector-curvature="0" />
	<path
   d="M 76.151,87.918 C 77.464,73.913 62.146,72.6 62.146,72.6 57.769,59.907 47.556,66.472 47.556,66.472 c 0,0 2.262,-49.025 1.395,-54.713 -0.51,-3.331 -6.383,-10.562 -9.998,-1.684 -2.137,6.166 -5.59,60.75 -9.465,56.874 C 24.984,62.447 20.611,18.817 19.414,18.626 18.438,14.09 9.011,5.294 7.511,21.794 c 3,39.5 3.865,47.304 3.865,47.304 C 9.187,74.35 5.31,87.481 5.31,87.481 c -8.316,9.191 -4.377,15.756 -4.377,15.756 7.002,12.255 21.385,28.449 21.385,28.449 6.127,5.252 2.625,8.316 2.625,8.316 l 42.455,0.438 2.334,-7.879 c 9.628,-18.382 6.419,-44.643 6.419,-44.643 z"
   id="path3328"
   inkscape:connector-curvature="0"
   sodipodi:nodetypes="cccccccccccccccc"
   style="fill:#ffffff" />
</g>
<g
   id="g3330"
   transform="translate(-7.9878665e-4,-3.8214145e-7)">
</g>
<g
   id="g3332"
   transform="translate(-7.9878665e-4,-3.8214145e-7)">
</g>
<g
   id="g3334"
   transform="translate(-7.9878665e-4,-3.8214145e-7)">
</g>
<g
   id="g3336"
   transform="translate(-7.9878665e-4,-3.8214145e-7)">
</g>
<g
   id="g3338"
   transform="translate(-7.9878665e-4,-3.8214145e-7)">
</g>
<g
   id="g3340"
   transform="translate(-7.9878665e-4,-3.8214145e-7)">
</g>
<g
   id="g3342"
   transform="translate(-7.9878665e-4,-3.8214145e-7)">
</g>
<g
   id="g3344"
   transform="translate(-7.9878665e-4,-3.8214145e-7)">
</g>
<g
   id="g3346"
   transform="translate(-7.9878665e-4,-3.8214145e-7)">
</g>
<g
   id="g3348"
   transform="translate(-7.9878665e-4,-3.8214145e-7)">
</g>
<g
   id="g3350"
   transform="translate(-7.9878665e-4,-3.8214145e-7)">
</g>
<g
   id="g3352"
   transform="translate(-7.9878665e-4,-3.8214145e-7)">
</g>
<g
   id="g3354"
   transform="translate(-7.9878665e-4,-3.8214145e-7)">
</g>
<g
   id="g3356"
   transform="translate(-7.9878665e-4,-3.8214145e-7)">
</g>
<g
   id="g3358"
   transform="translate(-7.9878665e-4,-3.8214145e-7)">
</g>
<path
   inkscape:connector-curvature="0"
   d="m 52.342987,124.78465 -8.980622,9.44613 c 0,0 -0.592129,0.74692 -1.214412,0.0786 -0.853927,-0.92772 -8.753091,-9.74549 -8.753091,-9.74549 0,0 -1.096535,-1.17966 0.352262,-1.17818 1.454279,10e-4 3.762485,10e-4 3.762485,10e-4 0,0 -0.0027,-0.67875 -0.0014,-1.72058 -0.0014,-3.20848 -0.0014,-9.4565 -0.0027,-11.8499 0,0 -0.01233,-0.56315 0.655179,-0.56019 0.672999,0 8.298029,0 9.238308,-0.003 0.937537,0.003 0.774428,0.66985 0.774428,0.66985 0,2.45861 0,8.50359 -0.0027,11.82767 0.0041,1.16039 0.0027,1.91472 0.0027,1.91472 0,0 2.879775,0.003 4.070886,0 1.192483,-10e-4 0.09869,1.11889 0.09869,1.11889 z m -0.09869,-37.828986 c -1.191111,0.003 -4.073627,0.003 -4.073627,0.003 0,0 0.0027,0.752845 0.0041,1.914716 -0.0041,3.327041 -0.0041,9.370556 -0.0014,11.83064 0,0 0.16174,0.66393 -0.774427,0.66096 -0.943021,0.006 -8.563939,0.003 -9.235567,0.004 -0.670257,-0.003 -0.65655,-0.56167 -0.65655,-0.56167 -0.0014,-2.393393 -0.0014,-8.642902 0.0014,-11.855831 -0.0014,-1.034421 0,-1.717613 0,-1.717613 0,0 -2.312318,0.003 -3.762486,0.0044 -1.444685,-0.003 -0.355003,-1.178173 -0.355003,-1.178173 0,0 7.896422,-8.81777 8.755832,-9.745488 0.622284,-0.671338 1.215783,0.07558 1.215783,0.07558 l 8.979252,9.444648 c 0,0 1.096534,1.121857 -0.09732,1.120375 z"
   id="path3432"
   sodipodi:nodetypes="ccccsccccccccccccccccccccccccc"
   style="fill:#ffd800;fill-opacity:1" /></svg>