<?xml version="1.0" encoding="UTF-8" standalone="no"?>
<!-- Generator: Adobe Illustrator 16.0.0, SVG Export Plug-In . SVG Version: 6.00 Build 0)  -->

<svg
   xmlns:dc="http://purl.org/dc/elements/1.1/"
   xmlns:cc="http://creativecommons.org/ns#"
   xmlns:rdf="http://www.w3.org/1999/02/22-rdf-syntax-ns#"
   xmlns:svg="http://www.w3.org/2000/svg"
   xmlns="http://www.w3.org/2000/svg"
   xmlns:sodipodi="http://sodipodi.sourceforge.net/DTD/sodipodi-0.dtd"
   xmlns:inkscape="http://www.inkscape.org/namespaces/inkscape"
   version="1.1"
   id="Capa_1"
   x="0px"
   y="0px"
   width="76.664284"
   height="133.41701"
   viewBox="0 0 76.664283 133.417"
   xml:space="preserve"
   inkscape:version="0.48.4 r9939"
   sodipodi:docname="TouchDrag.svg"><metadata
   id="metadata3468"><rdf:RDF><cc:Work
       rdf:about=""><dc:format>image/svg+xml</dc:format><dc:type
         rdf:resource="http://purl.org/dc/dcmitype/StillImage" /><dc:title /></cc:Work></rdf:RDF></metadata><defs
   id="defs3466" /><sodipodi:namedview
   pagecolor="#ffffff"
   bordercolor="#666666"
   borderopacity="1"
   objecttolerance="10"
   gridtolerance="10"
   guidetolerance="10"
   inkscape:pageopacity="0"
   inkscape:pageshadow="2"
   inkscape:window-width="920"
   inkscape:window-height="780"
   id="namedview3464"
   showgrid="false"
   inkscape:zoom="1.7688899"
   inkscape:cx="-0.077942171"
   inkscape:cy="94.239298"
   inkscape:window-x="161"
   inkscape:window-y="225"
   inkscape:window-maximized="0"
   inkscape:current-layer="g3428"
   fit-margin-top="0"
   fit-margin-left="0"
   fit-margin-right="0"
   fit-margin-bottom="0" />
<g
   id="g3428"
   transform="translate(-7.9878665e-4,-2.9265169e-6)">
	<path
   style="fill:#ffffff;fill-opacity:1;fill-rule:evenodd"
   d="M 18.653,0 C 12.359,0 7.258,5.102 7.258,11.395 c 0,6.293 5.102,11.395 11.396,11.395 6.293,0 11.395,-5.102 11.395,-11.395 C 30.048,5.102 24.946,0 18.653,0 z m 0,20.43 c -4.989,0 -9.036,-4.046 -9.036,-9.036 0,-4.989 4.047,-9.035 9.036,-9.035 4.989,0 9.035,4.046 9.035,9.035 0,4.99 -4.045,9.036 -9.035,9.036 z"
   id="path3430"
   inkscape:connector-curvature="0" />
	<path
   d="M 76.151,80.896 C 77.465,66.89 62.145,65.577 62.145,65.577 57.771,52.885 46.39,59.45 46.39,59.45 40.701,46.758 29.322,55.511 29.322,55.511 27.912,55.092 25.613,11.796 24.414,11.604 23.44,7.068 14.011,-1.728 12.511,14.772 c 0,36.5 -1.135,47.304 -1.135,47.304 C 9.188,67.328 5.31,80.458 5.31,80.458 -3.006,89.649 0.933,96.214 0.933,96.214 c 7.002,12.255 21.385,28.449 21.385,28.449 6.129,5.252 2.627,8.316 2.627,8.316 l 42.455,0.438 2.334,-7.878 c 9.628,-18.382 6.417,-44.643 6.417,-44.643 z"
   id="path3432"
   inkscape:connector-curvature="0"
   sodipodi:nodetypes="cccccccccccccc"
   style="fill:#ffffff;fill-opacity:1" />
<path
   d="m 65.247258,98.823749 c -0.681067,0.71969 -7.149935,7.376421 -7.149935,7.376421 0,0 -0.86404,0.92222 -0.86404,-0.29705 0.0013,-1.22468 0.0013,-3.17039 0.0013,-3.17039 0,0 -0.498094,0.003 -1.261753,0.002 -2.35324,0.002 -6.936466,0.002 -8.692502,0.002 0,0 -0.07751,-0.007 -0.162642,-0.0472 0,0.0378 0,0.0972 0,0.13232 0.01652,0.0891 0.0013,0.16068 0,0.16608 0,0.0149 0,0.0419 0,0.0554 0,0 0.01779,0.077 0,0.17013 0,2.02673 0,6.49066 0,8.99672 0.0013,0.90332 0,1.49203 0,1.49203 0,0 2.283354,0.002 3.229986,0 0.942821,0 0.07751,0.87225 0.07751,0.87225 l -7.121981,7.36157 c 0,0 -0.470139,0.5833 -0.963151,0.0607 -0.677255,-0.72374 -6.941548,-7.59515 -6.941548,-7.59515 0,0 -0.867853,-0.91952 0.280812,-0.91952 1.151207,0.002 2.983481,0.002 2.983481,0.002 0,0 -0.0026,-0.52929 -0.0013,-1.34079 -0.0013,-2.50067 -0.0013,-7.37102 -0.0013,-9.23572 l 0,-0.004 c 0,-0.0567 0,-0.14582 0,-0.21333 -0.08259,0.0392 -0.15883,0.0459 -0.15883,0.0459 -1.756036,0 -6.339262,0 -8.696314,-0.002 -0.759847,0.002 -1.260482,0 -1.260482,0 0,0 0.0026,1.94706 0.0026,3.17039 -0.0013,1.21793 -0.864041,0.29975 -0.864041,0.29975 0,0 -6.467597,-6.655381 -7.147393,-7.377761 -0.493012,-0.52525 0.05464,-1.02484 0.05464,-1.02484 l 6.927571,-7.566801 c 0,0 0.82338,-0.92357 0.82211,0.08236 0.0026,1.004586 0.0026,3.432334 0.0026,3.432334 0,0 0.552732,-0.0014 1.402796,-0.0041 2.439643,0.0041 6.872933,0.0027 8.678524,0.0014 0,0 0.116899,-0.03106 0.23634,0.027 0,-4.084505 0,-8.204115 0.0013,-9.436893 -0.0013,-0.807449 0,-1.339448 0,-1.339448 0,0 -1.832274,0.0027 -2.983481,0.0027 -1.146124,-0.0014 -0.280813,-0.918169 -0.280813,-0.918169 0,0 6.261752,-6.872771 6.942819,-7.596505 0.494283,-0.522547 0.964422,0.05806 0.964422,0.05806 l 7.12071,7.361561 c 0,0 0.869123,0.874963 -0.07624,0.872261 -0.945362,0.0027 -3.229987,0.0027 -3.229987,0.0027 0,0 0.0013,0.587358 0.0038,1.492025 -0.0013,1.284087 -0.0026,5.419901 -0.0026,9.503056 0.120712,-0.06211 0.240153,-0.02835 0.240153,-0.02835 1.804319,0 6.237609,0 8.675982,0 0.851334,-0.0014 1.404066,0 1.404066,0 0,0 0.0013,-2.426399 0,-3.430985 0,-1.003235 0.820838,-0.08236 0.820838,-0.08236 l 6.927572,7.566803 c 0,0.001 0.546378,0.50094 0.05845,1.02484 z"
   id="path3238"
   inkscape:connector-curvature="0"
   sodipodi:nodetypes="cccccccccccccccccccccsscccccccccccccccccccccccccccccccc"
   style="fill:#66ccff;fill-opacity:1" /></g>
<g
   id="g3434"
   transform="translate(-7.9878665e-4,-2.9265169e-6)">
</g>
<g
   id="g3436"
   transform="translate(-7.9878665e-4,-2.9265169e-6)">
</g>
<g
   id="g3438"
   transform="translate(-7.9878665e-4,-2.9265169e-6)">
</g>
<g
   id="g3440"
   transform="translate(-7.9878665e-4,-2.9265169e-6)">
</g>
<g
   id="g3442"
   transform="translate(-7.9878665e-4,-2.9265169e-6)">
</g>
<g
   id="g3444"
   transform="translate(-7.9878665e-4,-2.9265169e-6)">
</g>
<g
   id="g3446"
   transform="translate(-7.9878665e-4,-2.9265169e-6)">
</g>
<g
   id="g3448"
   transform="translate(-7.9878665e-4,-2.9265169e-6)">
</g>
<g
   id="g3450"
   transform="translate(-7.9878665e-4,-2.9265169e-6)">
</g>
<g
   id="g3452"
   transform="translate(-7.9878665e-4,-2.9265169e-6)">
</g>
<g
   id="g3454"
   transform="translate(-7.9878665e-4,-2.9265169e-6)">
</g>
<g
   id="g3456"
   transform="translate(-7.9878665e-4,-2.9265169e-6)">
</g>
<g
   id="g3458"
   transform="translate(-7.9878665e-4,-2.9265169e-6)">
</g>
<g
   id="g3460"
   transform="translate(-7.9878665e-4,-2.9265169e-6)">
</g>
<g
   id="g3462"
   transform="translate(-7.9878665e-4,-2.9265169e-6)">
</g>
</svg>