<?xml version="1.0" encoding="UTF-8" standalone="no"?>
<!-- Generator: Adobe Illustrator 17.0.0, SVG Export Plug-In . SVG Version: 6.00 Build 0)  -->

<svg
   xmlns:dc="http://purl.org/dc/elements/1.1/"
   xmlns:cc="http://creativecommons.org/ns#"
   xmlns:rdf="http://www.w3.org/1999/02/22-rdf-syntax-ns#"
   xmlns:svg="http://www.w3.org/2000/svg"
   xmlns="http://www.w3.org/2000/svg"
   xmlns:sodipodi="http://sodipodi.sourceforge.net/DTD/sodipodi-0.dtd"
   xmlns:inkscape="http://www.inkscape.org/namespaces/inkscape"
   version="1.1"
   id="Capa_1"
   x="0px"
   y="0px"
   width="99.001816"
   height="101.57817"
   viewBox="0 0 99.001814 101.57817"
   enable-background="new 0 0 100.775 118.638"
   xml:space="preserve"
   inkscape:version="0.48.4 r9939"
   sodipodi:docname="TouchRotate.svg"><metadata
   id="metadata3382"><rdf:RDF><cc:Work
       rdf:about=""><dc:format>image/svg+xml</dc:format><dc:type
         rdf:resource="http://purl.org/dc/dcmitype/StillImage" /><dc:title /></cc:Work></rdf:RDF></metadata><defs
   id="defs3380" /><sodipodi:namedview
   pagecolor="#ffffff"
   bordercolor="#666666"
   borderopacity="1"
   objecttolerance="10"
   gridtolerance="10"
   guidetolerance="10"
   inkscape:pageopacity="0"
   inkscape:pageshadow="2"
   inkscape:window-width="1105"
   inkscape:window-height="739"
   id="namedview3378"
   showgrid="false"
   inkscape:zoom="1.9873603"
   inkscape:cx="11.856691"
   inkscape:cy="15.112094"
   inkscape:window-x="67"
   inkscape:window-y="152"
   inkscape:window-maximized="0"
   inkscape:current-layer="Capa_1"
   fit-margin-top="0"
   fit-margin-left="0"
   fit-margin-right="0"
   fit-margin-bottom="0" />

<path
   inkscape:connector-curvature="0"
   style="fill:#ffffff;fill-opacity:1;fill-rule:evenodd"
   d="m 48.832974,0 c -5.85006,0 -10.591269,4.862311 -10.591269,10.85967 0,5.997358 4.742138,10.859669 10.592198,10.859669 5.849132,0 10.59127,-4.862311 10.59127,-10.859669 C 59.42425,4.862311 54.682106,0 48.832974,0 z m 0,19.47021 c -4.637107,0 -8.398657,-3.855921 -8.398657,-8.611493 0,-4.754621 3.76155,-8.610543 8.398657,-8.610543 4.637107,0 8.397729,3.855922 8.397729,8.610543 0,4.755572 -3.759691,8.611493 -8.397729,8.611493 z"
   id="path3430" /><path
   inkscape:connector-curvature="0"
   style="fill:#ffffff;fill-opacity:1;fill-rule:evenodd"
   d="m 27.154761,39.321738 c -5.457398,0 -9.88037,4.703155 -9.88037,10.504205 0,5.801049 4.423839,10.504204 9.881237,10.504204 5.456532,0 9.880371,-4.703155 9.880371,-10.504204 -8.67e-4,-5.80105 -4.424707,-10.504205 -9.881238,-10.504205 z m 0,18.8329 c -4.325859,0 -7.834929,-3.729707 -7.834929,-8.329617 0,-4.598989 3.50907,-8.328696 7.834929,-8.328696 4.32586,0 7.834063,3.729707 7.834063,8.328696 0,4.59991 -3.507336,8.329617 -7.834063,8.329617 z"
   id="path3430-5" /><path
   d="M 93.394891,94.930552 91.5074,101.57817 52.728925,101.21032 c 8.08e-4,-8.5e-4 2.829619,-2.585988 -2.124439,-7.016318 0,0 -10.822746,-5.22596 -18.506953,-18.0968 0,0 -6.310236,-6.742109 -6.091889,-9.206596 -0.583067,-4.408398 -1.209805,-6.954724 -1.715239,-8.534999 -1.063849,-4.039774 -1.553525,-2.844172 -1.553525,-7.228104 2.452812,-14.333817 10.869455,1.810623 12.764445,5.488368 0,0 6.305384,7.578229 9.063029,9.283373 8.851152,-2.291524 3.039071,-22.109494 3.660956,-23.668675 0,0 -1.25024,-10.043558 -2.822341,-23.064577 -3.9949,-15.561935 8.286796,-19.626706 11.636292,-3.093053 1.545414,7.344522 3.686834,19.52689 4.483397,19.774098 0,0 8.395048,-7.385018 12.995707,3.323385 0,0 9.202125,-5.538975 12.741777,5.170273 0,0 12.387573,1.10695 11.326563,12.923992 0,0 2.595085,22.156743 -5.191814,37.665865 z"
   id="path3376"
   inkscape:connector-curvature="0"
   sodipodi:nodetypes="cccccccccccccccccc"
   style="fill:#ffffff" /><path
   d="m 36.857901,10.534807 -5.731265,12.511815 c 0,0 -0.666487,1.516584 -1.19043,0.316343 -0.52908,-1.19559 -1.800413,-4.092683 -1.800413,-4.092683 0,0 -0.774356,0.279126 -1.962218,0.711771 -3.412049,1.225827 -9.61846,3.462323 -12.145716,4.370646 0,0 -0.609983,0.412873 -1.019633,-0.532666 -0.419926,-0.944375 -3.7806092,-8.602891 -4.0798222,-9.279772 -0.294076,-0.674552 0.288938,-0.867615 0.288938,-0.867615 2.4553422,-0.886224 8.8659382,-3.19599 12.1688342,-4.381112 1.05816,-0.382636 1.763171,-0.631523 1.763171,-0.631523 0,0 -1.02734,-2.324887 -1.664289,-3.782156 -0.636951,-1.454944 1.049169,-0.79202 1.049169,-0.79202 0,0 12.534822,4.676522 13.866509,5.195231 0.963131,0.382636 0.457165,1.253741 0.457165,1.253741 z"
   id="path9"
   style="fill:#d800d8;fill-opacity:1"
   inkscape:connector-curvature="0" /><g
   id="g2997"
   transform="matrix(0,-1,1,0,-0.01316643,45.882166)"
   inkscape:transform-center-x="-4.9812271"
   inkscape:transform-center-y="-4.2696251"><path
     id="path2999"
     d="M 6.6614176,0.14173229 19.48819,5.5984253 c 0,0 1.559055,0.6377953 0.354331,1.1338583 -1.240158,0.5314961 -4.181103,1.7716536 -4.181103,1.7716536 0,0 0.283465,0.7440945 0.744095,1.9133858 1.27559,3.259843 3.57874,9.248032 4.535433,11.692914 0,0 0.425197,0.566929 -0.566929,0.992126 -0.956693,0.389764 -8.751969,3.685039 -9.460631,4.003937 -0.673228,0.283464 -0.885827,-0.283465 -0.885827,-0.283465 C 9.1062996,24.448819 6.6968507,18.283465 5.4921262,15.094489 5.0669294,14.066929 4.8188979,13.393701 4.8188979,13.393701 c 0,0 -2.3740159,0.992126 -3.86220494,1.629921 -1.48818905,0.637796 -0.81496067,-0.992126 -0.81496067,-0.992126 0,0 4.71259861,-12.1535432 5.24409471,-13.42913378 0.3897638,-0.95669294 1.2755906,-0.46062993 1.2755906,-0.46062993 z"
     style="fill:#d800d8;fill-opacity:1;fill-rule:nonzero;stroke:none"
     inkscape:connector-curvature="0" /></g></svg>