<?xml version="1.0" encoding="UTF-8" standalone="no"?>
<!-- Generator: Adobe Illustrator 17.0.0, SVG Export Plug-In . SVG Version: 6.00 Build 0)  -->

<svg
   xmlns:dc="http://purl.org/dc/elements/1.1/"
   xmlns:cc="http://creativecommons.org/ns#"
   xmlns:rdf="http://www.w3.org/1999/02/22-rdf-syntax-ns#"
   xmlns:svg="http://www.w3.org/2000/svg"
   xmlns="http://www.w3.org/2000/svg"
   xmlns:sodipodi="http://sodipodi.sourceforge.net/DTD/sodipodi-0.dtd"
   xmlns:inkscape="http://www.inkscape.org/namespaces/inkscape"
   version="1.1"
   id="Capa_1"
   x="0px"
   y="0px"
   width="95.087433"
   height="118.43173"
   viewBox="0 0 95.087431 118.43173"
   enable-background="new 0 0 100.775 118.638"
   xml:space="preserve"
   inkscape:version="0.48.4 r9939"
   sodipodi:docname="TouchZoom.svg"><metadata
   id="metadata3382"><rdf:RDF><cc:Work
       rdf:about=""><dc:format>image/svg+xml</dc:format><dc:type
         rdf:resource="http://purl.org/dc/dcmitype/StillImage" /><dc:title /></cc:Work></rdf:RDF></metadata><defs
   id="defs3380" /><sodipodi:namedview
   pagecolor="#ffffff"
   bordercolor="#666666"
   borderopacity="1"
   objecttolerance="10"
   gridtolerance="10"
   guidetolerance="10"
   inkscape:pageopacity="0"
   inkscape:pageshadow="2"
   inkscape:window-width="1105"
   inkscape:window-height="739"
   id="namedview3378"
   showgrid="false"
   inkscape:zoom="2.8132167"
   inkscape:cx="10.565593"
   inkscape:cy="72.192791"
   inkscape:window-x="67"
   inkscape:window-y="152"
   inkscape:window-maximized="0"
   inkscape:current-layer="Capa_1"
   fit-margin-top="0"
   fit-margin-left="0"
   fit-margin-right="0"
   fit-margin-bottom="0" />

<path
   d="m 0.0436199,84.941029 c 0,0 -0.2799964,-1.323641 0.578786,-0.720397 0.8621957,0.601498 2.9536375,2.059778 2.9536375,2.059778 0,0 0.3431801,-0.517567 0.8707286,-1.316651 1.521209,-2.28009 4.281925,-6.427623 5.405325,-8.116707 0,0 0.187721,-0.53855 0.863902,-0.06295 0.682926,0.472104 6.206065,4.329377 6.692655,4.668591 0.483157,0.340966 0.220227,0.718649 0.220227,0.718649 -1.094368,1.641877 -3.948985,5.929292 -5.418977,8.132449 -0.469526,0.711655 -0.783654,1.178514 -0.783654,1.178514 0,0 1.678274,1.168023 2.728271,1.900661 1.043172,0.732637 -0.28341,0.987925 -0.28341,0.987925 0,0 -9.7470195,2.05628 -10.7936043,2.25911 -0.756328,0.145111 -0.8468168,-0.666198 -0.8468168,-0.666198 z"
   id="path3376-4"
   inkscape:connector-curvature="0"
   sodipodi:nodetypes="ccccccccccccccc"
   style="fill:#65ff00;fill-opacity:1" /><path
   inkscape:connector-curvature="0"
   style="fill:#ffffff;fill-opacity:1;fill-rule:evenodd"
   d="m 44.918594,16.853557 c -5.85006,0 -10.591269,4.862311 -10.591269,10.85967 0,5.997358 4.742138,10.859669 10.592198,10.859669 5.849132,0 10.59127,-4.862311 10.59127,-10.859669 -9.23e-4,-5.997359 -4.743067,-10.85967 -10.592199,-10.85967 z m 0,19.47021 c -4.637107,0 -8.398657,-3.855921 -8.398657,-8.611493 0,-4.754621 3.76155,-8.610543 8.398657,-8.610543 4.637107,0 8.397729,3.855922 8.397729,8.610543 0,4.755572 -3.759691,8.611493 -8.397729,8.611493 z"
   id="path3430" /><path
   inkscape:connector-curvature="0"
   style="fill:#ffffff;fill-opacity:1;fill-rule:evenodd"
   d="m 23.240381,56.175295 c -5.457398,0 -9.88037,4.703155 -9.88037,10.504205 0,5.801049 4.423839,10.504204 9.881237,10.504204 5.456532,0 9.880371,-4.703155 9.880371,-10.504204 -8.67e-4,-5.80105 -4.424707,-10.504205 -9.881238,-10.504205 z m 0,18.8329 c -4.325859,0 -7.834929,-3.729707 -7.834929,-8.329617 0,-4.598989 3.50907,-8.328696 7.834929,-8.328696 4.32586,0 7.834063,3.729707 7.834063,8.328696 0,4.59991 -3.507336,8.329617 -7.834063,8.329617 z"
   id="path3430-5" /><path
   d="m 89.480511,111.78411 -1.887491,6.64762 -38.778475,-0.36785 c 8.08e-4,-8.5e-4 2.829619,-2.58599 -2.124439,-7.01632 0,0 -10.822746,-5.22596 -18.506953,-18.096801 0,0 -6.310236,-6.742109 -6.091889,-9.206596 C 21.508197,79.335765 20.881459,76.789439 20.376025,75.209164 19.312176,71.16939 18.8225,72.364992 18.8225,67.98106 c 2.452812,-14.333817 10.869455,1.810623 12.764445,5.488368 0,0 6.305384,7.578229 9.063029,9.283373 8.851152,-2.291524 3.039071,-22.109494 3.660956,-23.668675 0,0 -1.25024,-10.043558 -2.822341,-23.064577 -3.9949,-15.561935 8.286796,-19.626706 11.636292,-3.093053 1.545414,7.344522 3.686834,19.52689 4.483397,19.774098 0,0 8.395048,-7.385018 12.995707,3.323385 0,0 9.202125,-5.538975 12.741777,5.170273 0,0 12.387573,1.10695 11.326563,12.923992 0,0 2.59509,22.156743 -5.191814,37.665866 z"
   id="path3376"
   inkscape:connector-curvature="0"
   sodipodi:nodetypes="cccccccccccccccccc"
   style="fill:#ffffff" /><path
   d="m 49.854025,14.903508 c 0.696314,0.466948 6.359531,4.268019 6.858144,4.604015 0.491619,0.334273 0.748797,-0.05343 0.748797,-0.05343 1.121449,-1.617954 4.044902,-5.844621 5.545997,-8.013953 0.488115,-0.703007 0.803031,-1.164787 0.803031,-1.164787 0,0 1.714536,1.152726 2.792243,1.876411 1.07596,0.721961 0.813533,-0.620302 0.813533,-0.620302 0,0 -1.732034,-9.8989818 -1.933227,-10.95349441 -0.150463,-0.7615853 -0.939496,-0.5513731 -0.939496,-0.5513731 L 53.458049,1.9374693 c 0,0 -1.336636,0.2136595 -0.454876,0.8046693 0.88876,0.5927325 3.02493,2.0297666 3.02493,2.0297666 0,0 -0.355152,0.5083037 -0.895757,1.2940169 -1.558825,2.2468717 -4.387811,6.3339699 -5.538999,7.9984459 -0.0018,0.0017 -0.433883,0.370456 0.260678,0.83914 z"
   id="path3376-7-4"
   inkscape:connector-curvature="0"
   sodipodi:nodetypes="ccccccccccccccc"
   style="fill:#65ff00;fill-opacity:1" /></svg>