<svg xmlns="http://www.w3.org/2000/svg" width="32" height="32" class="icon" viewBox="0 0 1024 1024"><path d="M956.8 988.8H585.6c-16 0-25.6-9.6-25.6-28.8V576c0-16 9.6-28.8 25.6-28.8h371.2c16 0 25.6 9.6 25.6 28.8v384c0 16-9.6 28.8-25.6 28.8zM608 937.6h326.4V598.4H608v339.2zm-121.6 44.8C262.4 982.4 144 848 144 595.2c0-19.2 9.6-28.8 25.6-28.8s25.6 12.8 25.6 28.8c0 220.8 96 326.4 288 326.4 16 0 25.6 12.8 25.6 28.8s-6.4 32-22.4 32z"/><path d="M262.4 694.4c-6.4 0-9.6-3.2-16-6.4L160 601.6c-9.6-9.6-9.6-22.4 0-28.8s22.4-9.6 28.8 0l86.4 86.4c9.6 9.6 9.6 22.4 0 28.8-3.2 3.2-6.4 6.4-12.8 6.4z"/><path d="M86.4 694.4c-6.4 0-9.6-3.2-16-6.4-9.6-9.6-9.6-22.4 0-28.8l86.4-86.4c9.6-9.6 22.4-9.6 28.8 0 9.6 9.6 9.6 22.4 0 28.8L99.2 688c-3.2 3.2-6.4 6.4-12.8 6.4zm790.4-249.6c-16 0-28.8-12.8-28.8-32 0-224-99.2-336-300.8-336-16 0-28.8-12.8-28.8-32s9.6-32 28.8-32c233.6 0 355.2 137.6 355.2 396.8 0 22.4-9.6 35.2-25.6 35.2z"/><path d="M876.8 448c-6.4 0-9.6-3.2-16-6.4l-86.4-86.4c-9.6-9.6-9.6-22.4 0-28.8s22.4-9.6 28.8 0l86.4 86.4c9.6 9.6 9.6 22.4 0 28.8 0 3.2-6.4 6.4-12.8 6.4z"/><path d="M876.8 448c-6.4 0-9.6-3.2-16-6.4-9.6-9.6-9.6-22.4 0-28.8l86.4-86.4c9.6-9.6 22.4-9.6 28.8 0s9.6 22.4 0 28.8l-86.4 86.4c-3.2 3.2-6.4 6.4-12.8 6.4zM288 524.8C156.8 524.8 48 416 48 278.4S156.8 35.2 288 35.2 528 144 528 281.6 419.2 524.8 288 524.8zm-3.2-432c-99.2 0-179.2 83.2-179.2 185.6S185.6 464 284.8 464 464 380.8 464 278.4 384 92.8 284.8 92.8z"/></svg>