<svg xmlns="http://www.w3.org/2000/svg" width="32" height="32" class="icon" viewBox="0 0 1024 1024"><path fill="#409EFF" d="M515.5 91.5C747.4 91.5 936 280.1 936 512S747.4 932.5 515.5 932.5 95 743.9 95 512 283.6 91.5 515.5 91.5m0-87C235.2 4.5 8 231.7 8 512s227.2 507.5 507.5 507.5S1023 792.3 1023 512 795.8 4.5 515.5 4.5z"/><path fill="#81888f" d="m337.7 450.8 84.1 61.2-84.1 61.2V450.8m-28.8-115c-30.1 0-58.2 23.8-58.2 58.1v236.2c0 34.3 28.1 58.1 58.2 58.1 11.5 0 23.3-3.5 33.9-11.2l162.4-118.1c31.9-23.2 31.9-70.7 0-93.8L342.8 347c-10.6-7.7-22.4-11.2-33.9-11.2z"/><path fill="#81888f" d="m529.1 450.8 84.1 61.2-84.1 61.2V450.8m-28.8-115c-30.1 0-58.2 23.8-58.2 58.1v236.2c0 34.3 28.1 58.1 58.2 58.1 11.5 0 23.3-3.5 33.9-11.2l162.4-118.1c31.9-23.2 31.9-70.7 0-93.8L534.2 347c-10.6-7.7-22.4-11.2-33.9-11.2z"/><path fill="#81888f" d="M736.8 367c-24 0-43.5 19.5-43.5 43.5v203c0 24 19.5 43.5 43.5 43.5s43.5-19.5 43.5-43.5v-203c0-24-19.5-43.5-43.5-43.5z"/></svg>