<svg xmlns="http://www.w3.org/2000/svg" width="40" height="40" class="icon" viewBox="0 0 1024 1024"><path fill="#409eff" d="M512 0C229.227 0 0 229.227 0 512s229.227 512 512 512 512-229.227 512-512S794.773 0 512 0zm-33.023 704.742c0 34.191-25.028 62.18-55.617 62.18s-55.618-27.975-55.618-62.18V319.258c0-34.19 25.028-62.18 55.618-62.18s55.617 27.975 55.617 62.18zm170.328 0c0 34.191-25.027 62.18-55.617 62.18s-55.617-27.975-55.617-62.18V319.258c0-34.19 25.027-62.18 55.617-62.18s55.617 27.975 55.617 62.18z"/></svg>