<svg xmlns="http://www.w3.org/2000/svg" width="32" height="32" class="icon" viewBox="0 0 1024 1024"><path fill="#409EFF" d="M512 90.3c231.9 0 420.5 188.6 420.5 420.5S743.9 931.3 512 931.3 91.5 742.7 91.5 510.8 280.1 90.3 512 90.3m0-87C231.7 3.3 4.5 230.5 4.5 510.8s227.2 507.5 507.5 507.5 507.5-227.2 507.5-507.5S792.3 3.3 512 3.3z"/><path fill="#81888f" d="M689.8 449.7V572l-84.1-61.2 84.1-61.1m28.8-115.1c-11.5 0-23.3 3.5-33.9 11.2L522.3 463.9c-31.9 23.2-31.9 70.6 0 93.8l162.4 118.1c10.6 7.7 22.4 11.2 33.9 11.2 30.1 0 58.2-23.8 58.2-58.1V392.7c0-34.3-28.1-58.1-58.2-58.1z"/><path fill="#81888f" d="M498.4 449.7V572l-84.1-61.2 84.1-61.1m28.8-115.1c-11.5 0-23.3 3.5-33.9 11.2L330.9 463.9c-31.9 23.2-31.9 70.6 0 93.8l162.4 118.1c10.6 7.7 22.4 11.2 33.9 11.2 30.1 0 58.2-23.8 58.2-58.1V392.7c0-34.3-28.1-58.1-58.2-58.1z"/><path fill="#81888f" d="M290.7 365.8c-24 0-43.5 19.5-43.5 43.5v203c0 24 19.5 43.5 43.5 43.5s43.5-19.5 43.5-43.5v-203c0-24-19.5-43.5-43.5-43.5z"/></svg>