<svg width="251" height="294"><g fill="none"><path fill="#E4EBF7" d="M0 129.023v-2.084C0 58.364 55.591 2.774 124.165 2.774h2.085c68.574 0 124.165 55.59 124.165 124.165v2.084c0 68.575-55.59 124.166-124.165 124.166h-2.085C55.591 253.189 0 197.598 0 129.023"/><path fill="#FFF" d="M41.417 132.92a8.231 8.231 0 1 1-16.38-1.65 8.231 8.231 0 0 1 16.38 1.65"/><path stroke="#FFF" d="m38.652 136.36 10.425 5.91m.912 6.235-12.58 10.73"/><path fill="#FFF" d="M41.536 161.28a5.636 5.636 0 1 1-11.216-1.13 5.636 5.636 0 0 1 11.216 1.13m17.618-16.019a5.677 5.677 0 1 1-11.297-1.138 5.677 5.677 0 0 1 11.297 1.138M100.36 29.516l29.66-.013a4.562 4.562 0 1 0-.004-9.126l-29.66.013a4.563 4.563 0 0 0 .005 9.126m11.344 18.238 29.659-.013a4.563 4.563 0 1 0-.004-9.126l-29.66.013a4.563 4.563 0 1 0 .005 9.126"/><path fill="#FFF" d="M114.066 29.503V29.5l15.698-.007a4.563 4.563 0 1 0 .004 9.126l-15.698.007v-.002a4.562 4.562 0 0 0-.004-9.122m71.339 108.221c-.55 5.455-5.418 9.432-10.873 8.882-5.456-.55-9.432-5.418-8.882-10.873s5.418-9.432 10.873-8.882 9.432 5.418 8.882 10.873"/><path stroke="#FFF" d="m180.17 143.772 12.572 7.129m1.099 7.519-15.171 12.94"/><path fill="#FFF" d="M185.55 171.926a6.798 6.798 0 1 1-13.528-1.363 6.798 6.798 0 0 1 13.527 1.363m18.571-16.641a6.848 6.848 0 1 1-13.627-1.375 6.848 6.848 0 0 1 13.626 1.375"/><path stroke="#FFF" d="M152.988 194.074a2.21 2.21 0 1 1-4.42 0 2.21 2.21 0 0 1 4.42 0zm72.943-75.857a2.21 2.21 0 1 1-4.421 0 2.21 2.21 0 0 1 4.421 0zm-8.841 34.834a2.21 2.21 0 1 1-4.421 0 2.21 2.21 0 0 1 4.42 0zm-39.25-43.209a2.21 2.21 0 1 1-4.422 0 2.21 2.21 0 0 1 4.421 0zm18.274-15.388a2.21 2.21 0 1 1-4.421 0 2.21 2.21 0 0 1 4.421 0zm6.73 88.069a2.21 2.21 0 1 1-4.42 0 2.21 2.21 0 0 1 4.42 0z"/><path stroke="#FFF" d="m215.125 155.262-1.902 20.075-10.87 5.958m-27.752-4.659-6.322 9.761H156.98l-4.484 6.449m23.378-65.566v-15.72m45.636 7.844-12.77 7.859-15.228-7.86V96.668"/><path fill="#A26EF4" d="M180.68 29.32C180.68 13.128 193.806 0 210 0c16.193 0 29.32 13.127 29.32 29.32 0 16.194-13.127 29.322-29.32 29.322s-29.32-13.128-29.32-29.321"/><path fill="#FFF" d="m221.45 41.706-21.563-.125a1.744 1.744 0 0 1-1.734-1.754l.071-12.23a1.744 1.744 0 0 1 1.754-1.734l21.562.125c.964.006 1.74.791 1.735 1.755l-.071 12.229a1.744 1.744 0 0 1-1.754 1.734"/><path fill="#FFF" d="M215.106 29.192c-.015 2.577-2.049 4.654-4.543 4.64s-4.504-2.115-4.489-4.693l.04-6.925c.016-2.577 2.05-4.654 4.543-4.64s4.504 2.116 4.49 4.693l-.04 6.925zm-4.53-14.074a6.877 6.877 0 0 0-6.916 6.837l-.043 7.368a6.877 6.877 0 0 0 13.754.08l.042-7.368a6.88 6.88 0 0 0-6.837-6.917m-43.01 53.249h-3.93a4.73 4.73 0 0 1-4.717-4.717 4.73 4.73 0 0 1 4.717-4.717h3.93a4.73 4.73 0 0 1 4.717 4.717 4.73 4.73 0 0 1-4.717 4.717"/><path fill="#5BA02E" d="M168.214 248.838a6.61 6.61 0 0 1-6.61-6.611v-66.108a6.611 6.611 0 0 1 13.221 0v66.108a6.61 6.61 0 0 1-6.61 6.61"/><path fill="#92C110" d="M176.147 248.176a6.61 6.61 0 0 1-6.61-6.61v-33.054a6.611 6.611 0 1 1 13.221 0v33.053a6.61 6.61 0 0 1-6.61 6.611"/><path fill="#F2D7AD" d="M185.994 293.89h-27.376a3.17 3.17 0 0 1-3.17-3.17v-45.887a3.17 3.17 0 0 1 3.17-3.17h27.376a3.17 3.17 0 0 1 3.17 3.17v45.886a3.17 3.17 0 0 1-3.17 3.17"/><path fill="#FFF" d="M81.972 147.673s6.377-.927 17.566-1.28c11.729-.371 17.57 1.086 17.57 1.086s3.697-3.855.968-8.424c1.278-12.077 5.982-32.827.335-48.273-1.116-1.339-3.743-1.512-7.536-.62-1.337.315-7.147-.149-7.983-.1l-15.311-.347s-3.487-.17-8.035-.508c-1.512-.113-4.227-1.683-5.458-.338-.406.443-2.425 5.669-1.97 16.077l8.635 35.642s-3.141 3.61 1.219 7.085"/><path fill="#FFC6A0" d="m75.768 73.325-.9-6.397 11.982-6.52s7.302-.118 8.038 1.205c.737 1.324-5.616.993-5.616.993s-1.836 1.388-2.615 2.5c-1.654 2.363-.986 6.471-8.318 5.986-1.708.284-2.57 2.233-2.57 2.233"/><path fill="#FFB594" d="M52.44 77.672s14.217 9.406 24.973 14.444c1.061.497-2.094 16.183-11.892 11.811-7.436-3.318-20.162-8.44-21.482-14.496-.71-3.258 2.543-7.643 8.401-11.76m89.422 2.442s-6.693 2.999-13.844 6.876c-3.894 2.11-10.137 4.704-12.33 7.988-6.224 9.314 3.536 11.22 12.947 7.503 6.71-2.651 28.999-12.127 13.227-22.367"/><path fill="#FFC6A0" d="m76.166 66.36 3.06 3.881s-2.783 2.67-6.31 5.747c-7.103 6.195-12.803 14.296-15.995 16.44-3.966 2.662-9.754 3.314-12.177-.118-3.553-5.032.464-14.628 31.422-25.95"/><path fill="#FFF" d="M64.674 85.116s-2.34 8.413-8.912 14.447c.652.548 18.586 10.51 22.144 10.056 5.238-.669 6.417-18.968 1.145-20.531-.702-.208-5.901-1.286-8.853-2.167-.87-.26-1.611-1.71-3.545-.936l-1.98-.869zm63.688.71s5.318 1.956 7.325 13.734c-.546.274-17.55 12.35-21.829 7.805-6.534-6.94-.766-17.393 4.275-18.61 4.646-1.121 5.03-1.37 10.23-2.929"/><path stroke="#E4EBF7" d="M78.18 94.656s.911 7.41-4.914 13.078M87.397 94.68s3.124 2.572 10.263 2.572c7.14 0 9.074-3.437 9.074-3.437"/><path fill="#FFC6A0" d="m117.184 68.639-6.781-6.177s-5.355-4.314-9.223-.893c-3.867 3.422 4.463 2.083 5.653 4.165s.848 1.143-2.083.446c-5.603-1.331-2.082.893 2.975 5.355 2.091 1.845 6.992.955 6.992.955z"/><path fill="#FFB594" d="m105.282 91.315-.297-10.937-15.918-.027-.53 10.45c-.026.403.17.788.515.999 2.049 1.251 9.387 5.093 15.799.424.287-.21.443-.554.431-.91"/><path fill="#5C2552" d="M107.573 74.24c.817-1.147.982-9.118 1.015-11.928a1.046 1.046 0 0 0-.965-1.055l-4.62-.365c-7.71-1.044-17.071.624-18.253 6.346-5.482 5.813-.421 13.244-.421 13.244s1.963 3.566 4.305 6.791c.756 1.041.398-3.731 3.04-5.929 5.524-4.594 15.899-7.103 15.899-7.103"/><path fill="#FFC6A0" d="M88.426 83.206s2.685 6.202 11.602 6.522c7.82.28 8.973-7.008 7.434-17.505l-.909-5.483c-6.118-2.897-15.478.54-15.478.54s-.576 2.044-.19 5.504c-2.276 2.066-1.824 5.618-1.824 5.618s-.905-1.922-1.98-2.321c-.86-.32-1.897.089-2.322 1.98-1.04 4.632 3.667 5.145 3.667 5.145"/><path stroke="#DB836E" d="m100.843 77.099 1.701-.928-1.015-4.324.674-1.406"/><path fill="#552950" d="M105.546 74.092c-.022.713-.452 1.279-.96 1.263-.51-.016-.904-.607-.882-1.32.021-.713.452-1.278.96-1.263.51.016.904.607.882 1.32m-7.954.257c-.022.713-.452 1.278-.961 1.263s-.904-.607-.882-1.32.452-1.279.961-1.263c.51.016.904.606.882 1.32"/><path stroke="#DB836E" d="M91.132 86.786s5.269 4.957 12.679 2.327"/><path fill="#DB836E" d="M99.776 81.903s-3.592.232-1.44-2.79c1.59-1.496 4.897-.46 4.897-.46s1.156 3.906-3.457 3.25"/><path stroke="#5C2552" d="M102.88 70.6s2.483.84 3.402.715m-12.399.66s2.492-1.144 4.778-1.073"/><path stroke="#DB836E" d="M86.32 77.374s.961.879 1.458 2.106c-.377.48-1.033 1.152-.236 1.809m11.795 2.43s1.911.151 2.509-.254"/><path stroke="#E4EBF7" d="m87.782 115.821 15.73-3.012m-3.347 3.012 10.04-2.008m-43.697-27.05s-1.598 8.83-6.697 14.078m68.499-12.907s3.013 4.121 4.06 11.785"/><path stroke="#DB836E" d="M64.09 84.816s-6.03 9.912-13.607 9.903"/><path fill="#FFC6A0" d="m112.366 65.909-.142 5.32s5.993 4.472 11.945 9.202c4.482 3.562 8.888 7.455 10.985 8.662 4.804 2.766 8.9 3.355 11.076 1.808 4.071-2.894 4.373-9.878-8.136-15.263-4.271-1.838-16.144-6.36-25.728-9.73"/><path stroke="#DB836E" d="M130.532 85.488s4.588 5.757 11.619 6.214"/><path stroke="#E4EBF7" d="M121.708 105.73s-.393 8.564-1.34 13.612"/><path stroke="#648BD8" d="M115.784 161.512s-3.57-1.488-2.678-7.14"/><path fill="#CBD1D1" d="M101.52 290.246s4.326 2.057 7.408 1.03c2.842-.948 4.564.673 7.132 1.186 2.57.514 6.925 1.108 11.772-1.269-.104-5.551-6.939-4.01-12.048-6.763-2.582-1.39-3.812-4.757-3.625-8.863h-9.471s-1.402 10.596-1.169 14.68"/><path fill="#2B0849" d="M101.496 290.073s2.447 1.281 6.809.658c3.081-.44 3.74.485 7.479 1.039s10.802-.07 11.91-.9c.415 1.108-.347 2.077-.347 2.077s-1.523.608-4.847.831c-2.045.137-5.843.293-7.663-.507-1.8-1.385-5.286-1.917-5.77-.243-3.947.958-7.41-.288-7.41-.288l-.16-2.667z"/><path fill="#A4AABA" d="M108.824 276.19h3.116s-.103 6.751 4.57 8.62c-4.673.624-8.62-2.32-7.686-8.62"/><path fill="#CBD1D1" d="M57.65 272.52s-2.122 7.47-4.518 12.396c-1.811 3.724-4.255 7.548 5.505 7.548 6.698 0 9.02-.483 7.479-6.648-1.541-6.164.268-13.296.268-13.296z"/><path fill="#2B0849" d="M51.54 290.04s2.111 1.178 6.682 1.178c6.128 0 8.31-1.662 8.31-1.662s.605 1.122-.624 2.18c-1 .862-3.624 1.603-7.444 1.559-4.177-.049-5.876-.57-6.786-1.177-.831-.554-.692-1.593-.138-2.078"/><path fill="#A4AABA" d="M58.533 274.438s.034 1.529-.315 2.95c-.352 1.431-1.087 3.127-1.139 4.17-.058 1.16 4.57 1.592 5.194.035.623-1.559 1.303-6.475 1.927-7.306.622-.831-4.94-2.135-5.667.15"/><path fill="#7BB2F9" d="m100.885 277.015 13.306.092s1.291-54.228 1.843-64.056 3.756-43.13.997-62.788l-12.48-.64-22.725.776s-.433 3.944-1.19 9.921c-.062.493-.677.838-.744 1.358-.075.582.42 1.347.318 1.956-2.35 14.003-6.343 32.926-8.697 46.425-.116.663-1.227 1.004-1.45 2.677-.04.3.21 1.516.112 1.785-6.836 18.643-10.89 47.584-14.2 61.551l14.528-.014s2.185-8.524 4.008-16.878c2.796-12.817 22.987-84.553 22.987-84.553l3-.517 1.037 46.1s-.223 1.228.334 2.008c.558.782-.556 1.117-.39 2.233l.39 1.784s-.446 7.14-.892 11.826c-.446 4.685-.092 38.954-.092 38.954"/><path stroke="#648BD8" d="M77.438 220.434c1.146.094 4.016-2.008 6.916-4.91m23.196 8.407s2.758-1.103 6.069-3.862m-5.16.836s2.759-1.104 6.07-3.863m-38.43 6.515s2.608-.587 6.47-3.346m4.761-69.391c-.27 3.088.297 8.478-4.315 9.073m21.814-10.818s.11 13.936-1.286 14.983c-2.207 1.655-2.975 1.934-2.975 1.934m.446-16.362s.035 12.81-1.19 24.245m-4.894 1.09s7.174-1.655 9.38-1.655m-28.639 31.444c-.316 1.55-.64 3.067-.973 4.535 0 0-1.45 1.822-1.003 3.756.446 1.934-.943 2.034-4.96 15.273-1.686 5.559-4.464 18.49-6.313 27.447-.078.38-4.018 18.06-4.093 18.423m18.714-77.445a313 313 0 0 1-.877 4.729m7.742-50.058-1.19 10.413s-1.091.148-.496 2.23c.111 1.34-2.66 15.692-5.153 30.267M57.58 272.94h13.238"/><path fill="#192064" d="M117.377 147.423s-16.955-3.087-35.7.199c.157 2.501-.002 4.128-.002 4.128s14.607-2.802 35.476-.31c.251-2.342.226-4.017.226-4.017"/><path fill="#FFF" d="m107.511 150.353.004-4.885a.807.807 0 0 0-.774-.81c-2.428-.092-5.04-.108-7.795-.014a.814.814 0 0 0-.784.81l-.003 4.88c0 .456.371.82.827.808a141 141 0 0 1 7.688.017.81.81 0 0 0 .837-.806"/><path fill="#192064" d="m106.402 149.426.002-3.06a.64.64 0 0 0-.616-.643 94 94 0 0 0-5.834-.009.647.647 0 0 0-.626.643l-.001 3.056c0 .36.291.648.651.64 1.78-.04 3.708-.041 5.762.012a.644.644 0 0 0 .662-.64"/><path stroke="#648BD8" d="M101.485 273.933h12.272m-11.105-4.858c.006 3.368.04 5.759.11 6.47m-.095-12.42c-.009 1.53-.015 2.98-.016 4.313m-.447-93.414.893 44.402s.669 1.561-.224 2.677c-.892 1.116 2.455.67.893 2.231-1.562 1.562.893 1.116 0 3.347-.592 1.48-.988 20.987-1.09 34.956"/></g></svg>