<svg xmlns="http://www.w3.org/2000/svg" width="20" height="20" viewBox="0 0 1024 1024"><path fill="#FF5D50" d="M428.698 107.315c-6.503 72.192-36.352 207.258-160.256 337.408 3.686-48.025-7.117-83.763-19.047-107.673-6.605-13.159-26.06-10.599-28.877 3.84-5.734 29.44-20.582 75.059-57.6 137.779-71.628 121.395-62.566 459.878 340.736 459.878S934.093 585.728 876.8 442.522c-37.376-93.44-93.952-152.525-128.82-182.324-11.417-9.779-29.132-1.945-29.593 13.056-.921 30.464-7.321 73.37-33.075 102.144-.666-52.787-38.144-208.384-202.445-296.857-23.296-12.544-51.763 2.457-54.17 28.774z"/><path fill="#FFDF99" d="M702.26 678.4c-4.2-45.056-60.673-166.554-212.634-246.426-10.599-5.58-23.092 3.124-21.504 15.002 6.246 46.848 12.953 140.493-24.064 184.73 4.044-40.397-18.125-73.83-36.66-94.31-8.396-9.217-23.552-4.66-25.497 7.68-3.533 22.322-12.851 56.268-36.557 97.945-42.086 74.035-86.989 188.672 124.57 294.656 10.956.563 22.17.87 33.74.87a618 618 0 0 0 32.717-.87C694.631 878.182 709.837 759.706 702.26 678.4"/></svg>