<svg xmlns="http://www.w3.org/2000/svg" width="16" height="16" class="icon" viewBox="0 0 1024 1024"><path d="M554 849.574c0 23.365-18.635 42.307-42 42.307s-42-18.941-42-42.307V662.719c0-23.365 18.635-42.307 42-42.307v-7.051c23.365 0 42 25.993 42 49.358z"/><path d="M893 888.5c0 17.397-14.103 31.5-31.5 31.5h-700c-17.397 0-31.5-14.103-31.5-31.5s14.103-31.5 31.5-31.5h700c17.397 0 31.5 14.103 31.5 31.5m33-714.074C926 135.484 894.686 105 855.744 105H168.256C129.314 105 98 135.484 98 174.426V533h828zM98 630.988C98 669.931 129.314 702 168.256 702h687.488C894.686 702 926 669.931 926 630.988V596H98z"/></svg>