<svg fill="none" viewBox="0 0 16 16" width="1em" height="1em" class="t-icon t-icon-user-avatar" data-v-7be81122=""><path fill="currentColor" d="M8 10.5c1.24 0 2.42.31 3.5.88v1.12h1v-1.14a.94.94 0 00-.49-.84 8.48 8.48 0 00-8.02 0 .94.94 0 00-.49.84v1.14h1v-1.12A7.47 7.47 0 018 10.5zM10.5 6a2.5 2.5 0 11-5 0 2.5 2.5 0 015 0zm-1 0a1.5 1.5 0 10-3 0 1.5 1.5 0 003 0z"></path><path fill="currentColor" d="M2.5 1.5a1 1 0 00-1 1v11a1 1 0 001 1h11a1 1 0 001-1v-11a1 1 0 00-1-1h-11zm11 1v11h-11v-11h11z"></path></svg>