<svg t="1636193306629" class="icon" viewBox="0 0 1024 1024" version="1.1" xmlns="http://www.w3.org/2000/svg" p-id="1847" width="32" height="32"><path d="M410.558481 0.10861C410.558481 211.083075 109.682285 361.860579 109.682285 633.656511c0 174.943176 134.703259 316.787527 300.876196 316.787527s300.876197-141.817198 300.876197-316.787527C711.407525 361.751969 410.558481 210.974465 410.558481 0.10861z" fill="#386BF3" p-id="1848"></path><path d="M613.468671 73.664572c0 211.055922-300.876197 361.914883-300.876196 633.547901 0 174.943176 134.703259 316.787527 300.876196 316.787527s300.876197-141.817198 300.876197-316.787527c-0.054305-271.633018-300.876197-422.491979-300.876197-633.547901z" fill="#C3D2FB" p-id="1849"></path><path d="M312.592475 707.212473c0-183.713414 137.635722-312.171612 226.72288-441.390078 81.701694 106.111739 172.119322 218.740063 172.119323 367.725506a309.755045 309.755045 0 0 1-291.074166 316.516003 323.114046 323.114046 0 0 1-107.768037-242.851431z" fill="#303F5B" p-id="1850"></path></svg>