<svg xmlns="http://www.w3.org/2000/svg" data-name="Layer 1" width="500" height="380" viewBox="0 0 712.04639 380.32169" xmlns:xlink="http://www.w3.org/1999/xlink"><path d="M956.0232,485.063c0-31.58264-25.62012-106.52668-57.22413-106.52668S841.575,453.48038,841.575,485.063a57.22414,57.22414,0,0,0,114.44825,0Z" transform="translate(-243.9768 -259.83915)" fill="#f2f2f2"/><path d="M898.79907,611.7802a.65441.65441,0,0,1-.65437-.65438V477.54089a.65437.65437,0,1,1,1.30875,0V611.12582A.65441.65441,0,0,1,898.79907,611.7802Z" transform="translate(-243.9768 -259.83915)" fill="#ccc"/><path d="M898.79939,502.49924a.65287.65287,0,0,1-.49477-.22558l-32.91089-37.95387a.65449.65449,0,0,1,.98892-.85759l32.91088,37.95386a.65456.65456,0,0,1-.49414,1.08318Z" transform="translate(-243.9768 -259.83915)" fill="#ccc"/><path d="M898.79907,524.403a.65438.65438,0,0,1-.46266-1.117L917.037,504.58506a.65431.65431,0,0,1,.92533.92533l-18.70055,18.70087A.652.652,0,0,1,898.79907,524.403Z" transform="translate(-243.9768 -259.83915)" fill="#ccc"/><path d="M325.0232,540.42306c0-17.78486-14.42723-59.98744-32.22413-59.98744S260.575,522.6382,260.575,540.42306a32.22413,32.22413,0,0,0,64.44825,0Z" transform="translate(-243.9768 -259.83915)" fill="#f2f2f2"/><path d="M292.79907,611.7802a.36851.36851,0,0,1-.36849-.36849V536.18719a.3685.3685,0,1,1,.737,0v75.22452A.36851.36851,0,0,1,292.79907,611.7802Z" transform="translate(-243.9768 -259.83915)" fill="#ccc"/><path d="M292.79925,550.24176a.36763.36763,0,0,1-.27861-.127L273.98782,528.7421a.36856.36856,0,0,1,.55688-.48293l18.53281,21.37264a.36858.36858,0,0,1-.27826.61Z" transform="translate(-243.9768 -259.83915)" fill="#ccc"/><path d="M292.79907,562.57622a.36849.36849,0,0,1-.26053-.629l10.53068-10.53085a.36845.36845,0,0,1,.52107.52107l-10.53068,10.53086A.36714.36714,0,0,1,292.79907,562.57622Z" transform="translate(-243.9768 -259.83915)" fill="#ccc"/><path d="M257.89721,611.29191a13.45275,13.45275,0,1,1,26.90551,0" transform="translate(-243.9768 -259.83915)" fill="#f2f2f2"/><path d="M271.35,611.29191a.36361.36361,0,0,1-.36359-.36359v-7.09a.36359.36359,0,0,1,.72718,0v7.09A.36361.36361,0,0,1,271.35,611.29191Z" transform="translate(-243.9768 -259.83915)" fill="#ccc"/><path d="M271.34979,608.85562a.36193.36193,0,0,1-.23665-.0877l-4.363-3.74471a.36358.36358,0,1,1,.47361-.55177l4.36306,3.74471a.36359.36359,0,0,1-.237.63947Z" transform="translate(-243.9768 -259.83915)" fill="#ccc"/><path d="M299.34624,611.29191a13.45276,13.45276,0,0,1,26.90552,0" transform="translate(-243.9768 -259.83915)" fill="#f2f2f2"/><path d="M312.799,611.29191a.36361.36361,0,0,1-.36359-.36359v-7.09a.36359.36359,0,1,1,.72718,0v7.09A.36361.36361,0,0,1,312.799,611.29191Z" transform="translate(-243.9768 -259.83915)" fill="#ccc"/><path d="M312.79882,608.85562a.362.362,0,0,1-.23665-.0877l-4.36306-3.74471a.36359.36359,0,0,1,.47366-.55177l4.36306,3.74471a.36359.36359,0,0,1-.237.63947Z" transform="translate(-243.9768 -259.83915)" fill="#ccc"/><path d="M548.8145,557.83915c-82.15894,0-149-66.8413-149-149s66.84106-149,149-149,149,66.84131,149,149S630.97343,557.83915,548.8145,557.83915Zm0-296c-81.05616,0-147,65.94385-147,147s65.94384,147,147,147,147-65.94384,147-147S629.87065,261.83915,548.8145,261.83915Z" transform="translate(-243.9768 -259.83915)" fill="#ccc"/><path d="M548.8145,397.83915a1,1,0,0,1-1-1v-136a1,1,0,0,1,2,0v136A1.00005,1.00005,0,0,1,548.8145,397.83915Z" transform="translate(-243.9768 -259.83915)" fill="#ccc"/><path d="M696.8145,409.83915h-136a1,1,0,0,1,0-2h136a1,1,0,0,1,0,2Z" transform="translate(-243.9768 -259.83915)" fill="#ccc"/><path d="M536.8145,409.83915H400.87895a1,1,0,0,1,0-2H536.8145a1,1,0,0,1,0,2Z" transform="translate(-243.9768 -259.83915)" fill="#ccc"/><path d="M548.8145,557.83915a1,1,0,0,1-1-1v-136a1,1,0,0,1,2,0v136A1.00005,1.00005,0,0,1,548.8145,557.83915Z" transform="translate(-243.9768 -259.83915)" fill="#ccc"/><path d="M557.63139,401.71318a1,1,0,0,1-.707-1.707l95.74341-95.74366a.99989.99989,0,1,1,1.41406,1.41407l-95.74341,95.74365A.99636.99636,0,0,1,557.63139,401.71318Z" transform="translate(-243.9768 -259.83915)" fill="#ccc"/><path d="M539.99785,401.71318a.99638.99638,0,0,1-.707-.293l-95.74365-95.74365a.99989.99989,0,1,1,1.41406-1.41407l95.74366,95.74366a1,1,0,0,1-.707,1.707Z" transform="translate(-243.9768 -259.83915)" fill="#ccc"/><path d="M653.3748,513.70878a.99631.99631,0,0,1-.707-.293l-95.74341-95.74365a.99989.99989,0,0,1,1.41406-1.41406l95.74341,95.74365a1,1,0,0,1-.707,1.707Z" transform="translate(-243.9768 -259.83915)" fill="#ccc"/><path d="M444.25419,513.70878a1,1,0,0,1-.707-1.707l95.74365-95.74365a.99989.99989,0,0,1,1.41407,1.41406l-95.74366,95.74365A.9963.9963,0,0,1,444.25419,513.70878Z" transform="translate(-243.9768 -259.83915)" fill="#ccc"/><path d="M548.8145,511.33915a102.5,102.5,0,1,1,102.5-102.5A102.6161,102.6161,0,0,1,548.8145,511.33915Zm0-203a100.5,100.5,0,1,0,100.5,100.5A100.61381,100.61381,0,0,0,548.8145,308.33915Z" transform="translate(-243.9768 -259.83915)" fill="#ccc"/><circle cx="304.83777" cy="149" r="12" fill="#3f3d56"/><polygon points="258.381 351.695 247.838 352 299.295 144.305 308.86 147.223 258.381 351.695" fill="#3f3d56"/><polygon points="351.295 351.695 361.838 352 310.381 144.305 300.816 147.223 351.295 351.695" fill="#3f3d56"/><rect x="287.83777" y="31" width="33" height="18" fill="#ccc"/><rect x="289.83777" y="35" width="13" height="14" fill="#fff"/><rect x="305.83777" y="35" width="13" height="14" fill="#fff"/><path d="M548.31457,328.33915a19.02161,19.02161,0,0,1-19-19v-.5a4.50508,4.50508,0,0,1,4.5-4.5h29a4.50508,4.50508,0,0,1,4.5,4.5v.5A19.0216,19.0216,0,0,1,548.31457,328.33915Z" transform="translate(-243.9768 -259.83915)" fill="#ccc"/><path d="M563.57849,295.33915H533.05066a2.49992,2.49992,0,0,1-2.23609-3.61816l6-12a2.486,2.486,0,0,1,2.23609-1.38184h18.52783a2.486,2.486,0,0,1,2.23608,1.38184l6,12a2.49992,2.49992,0,0,1-2.23608,3.61816Z" transform="translate(-243.9768 -259.83915)" fill="#5392f0"/><rect x="376.83777" y="71" width="33" height="18" fill="#ccc"/><rect x="378.83777" y="75" width="13" height="14" fill="#fff"/><rect x="394.83777" y="75" width="13" height="14" fill="#fff"/><path d="M637.31457,368.33915a19.02161,19.02161,0,0,1-19-19v-.5a4.50508,4.50508,0,0,1,4.5-4.5h29a4.50508,4.50508,0,0,1,4.5,4.5v.5A19.0216,19.0216,0,0,1,637.31457,368.33915Z" transform="translate(-243.9768 -259.83915)" fill="#ccc"/><path d="M628.05066,319.33915a1.492,1.492,0,0,0-1.34155.82911l-6,12a1.49982,1.49982,0,0,0,1.34155,2.17089h30.52783a1.49982,1.49982,0,0,0,1.34155-2.17089l-6-12a1.492,1.492,0,0,0-1.34155-.82911Z" transform="translate(-243.9768 -259.83915)" fill="#5392f0"/><rect x="411.83777" y="161" width="33" height="18" fill="#ccc"/><rect x="413.83777" y="165" width="13" height="14" fill="#fff"/><rect x="429.83777" y="165" width="13" height="14" fill="#fff"/><path d="M672.31457,458.33915a19.02161,19.02161,0,0,1-19-19v-.5a4.50508,4.50508,0,0,1,4.5-4.5h29a4.50508,4.50508,0,0,1,4.5,4.5v.5A19.0216,19.0216,0,0,1,672.31457,458.33915Z" transform="translate(-243.9768 -259.83915)" fill="#ccc"/><path d="M687.57849,425.33915H657.05066a2.49992,2.49992,0,0,1-2.23609-3.61816l6-12a2.486,2.486,0,0,1,2.23609-1.38184h18.52783a2.486,2.486,0,0,1,2.23608,1.38184l6,12a2.49992,2.49992,0,0,1-2.23608,3.61816Z" transform="translate(-243.9768 -259.83915)" fill="#5392f0"/><rect x="374.83777" y="245" width="33" height="18" fill="#ccc"/><rect x="376.83777" y="249" width="13" height="14" fill="#fff"/><rect x="392.83777" y="249" width="13" height="14" fill="#fff"/><path d="M635.31457,542.33915a19.02161,19.02161,0,0,1-19-19v-.5a4.50508,4.50508,0,0,1,4.5-4.5h29a4.50508,4.50508,0,0,1,4.5,4.5v.5A19.0216,19.0216,0,0,1,635.31457,542.33915Z" transform="translate(-243.9768 -259.83915)" fill="#ccc"/><path d="M650.57849,509.33915H620.05066a2.49992,2.49992,0,0,1-2.23609-3.61816l6-12a2.486,2.486,0,0,1,2.23609-1.38184h18.52783a2.486,2.486,0,0,1,2.23608,1.38184l6,12a2.49992,2.49992,0,0,1-2.23608,3.61816Z" transform="translate(-243.9768 -259.83915)" fill="#5392f0"/><rect x="443.81457" y="330.83915" width="33" height="18" transform="translate(676.65235 419.83915) rotate(-180)" fill="#ccc"/><rect x="461.81457" y="334.83915" width="13" height="14" transform="translate(692.65235 423.83915) rotate(-180)" fill="#fff"/><rect x="445.81457" y="334.83915" width="13" height="14" transform="translate(660.65235 423.83915) rotate(-180)" fill="#fff"/><path d="M460.31457,368.33915a19.02161,19.02161,0,0,1-19-19v-.5a4.50508,4.50508,0,0,1,4.5-4.5h29a4.50508,4.50508,0,0,1,4.5,4.5v.5A19.0216,19.0216,0,0,1,460.31457,368.33915Z" transform="translate(-243.9768 -259.83915)" fill="#ccc"/><path d="M475.57849,335.33915H445.05066a2.49992,2.49992,0,0,1-2.23609-3.61816l6-12a2.486,2.486,0,0,1,2.23609-1.38184h18.52783a2.486,2.486,0,0,1,2.23608,1.38184l6,12a2.49992,2.49992,0,0,1-2.23608,3.61816Z" transform="translate(-243.9768 -259.83915)" fill="#5392f0"/><rect x="408.81457" y="420.83915" width="33" height="18" transform="translate(606.65235 599.83915) rotate(-180)" fill="#ccc"/><rect x="426.81457" y="424.83915" width="13" height="14" transform="translate(622.65235 603.83915) rotate(-180)" fill="#fff"/><rect x="410.81457" y="424.83915" width="13" height="14" transform="translate(590.65235 603.83915) rotate(-180)" fill="#fff"/><path d="M425.31457,458.33915a19.02161,19.02161,0,0,1-19-19v-.5a4.50508,4.50508,0,0,1,4.5-4.5h29a4.50508,4.50508,0,0,1,4.5,4.5v.5A19.0216,19.0216,0,0,1,425.31457,458.33915Z" transform="translate(-243.9768 -259.83915)" fill="#ccc"/><path d="M440.57849,425.33915H410.05066a2.49992,2.49992,0,0,1-2.23609-3.61816l6-12a2.486,2.486,0,0,1,2.23609-1.38184h18.52783a2.486,2.486,0,0,1,2.23608,1.38184l6,12a2.49992,2.49992,0,0,1-2.23608,3.61816Z" transform="translate(-243.9768 -259.83915)" fill="#5392f0"/><rect x="445.81457" y="504.83915" width="33" height="18" transform="translate(680.65235 767.83915) rotate(-180)" fill="#ccc"/><rect x="463.81457" y="508.83915" width="13" height="14" transform="translate(696.65235 771.83915) rotate(-180)" fill="#fff"/><rect x="447.81457" y="508.83915" width="13" height="14" transform="translate(664.65235 771.83915) rotate(-180)" fill="#fff"/><path d="M462.31457,542.33915a19.02161,19.02161,0,0,1-19-19v-.5a4.50508,4.50508,0,0,1,4.5-4.5h29a4.50508,4.50508,0,0,1,4.5,4.5v.5A19.0216,19.0216,0,0,1,462.31457,542.33915Z" transform="translate(-243.9768 -259.83915)" fill="#ccc"/><path d="M477.57849,509.33915H447.05066a2.49992,2.49992,0,0,1-2.23609-3.61816l6-12a2.486,2.486,0,0,1,2.23609-1.38184h18.52783a2.486,2.486,0,0,1,2.23608,1.38184l6,12a2.49992,2.49992,0,0,1-2.23608,3.61816Z" transform="translate(-243.9768 -259.83915)" fill="#5392f0"/><rect x="287.83777" y="283" width="33" height="18" fill="#ccc"/><rect x="289.83777" y="287" width="13" height="14" fill="#fff"/><rect x="305.83777" y="287" width="13" height="14" fill="#fff"/><path d="M533.81457,557.33915a3.50409,3.50409,0,0,0-3.5,3.5v.5a18,18,0,0,0,36,0v-.5a3.50409,3.50409,0,0,0-3.5-3.5Z" transform="translate(-243.9768 -259.83915)" fill="#ccc"/><path d="M539.05066,531.33915a1.492,1.492,0,0,0-1.34155.82911l-6,12a1.49982,1.49982,0,0,0,1.34155,2.17089h30.52783a1.49982,1.49982,0,0,0,1.34155-2.17089l-6-12a1.492,1.492,0,0,0-1.34155-.82911Z" transform="translate(-243.9768 -259.83915)" fill="#5392f0"/><path d="M773.0232,581.83915a1,1,0,0,0,0-2h-9.5v-4h9.5a1,1,0,0,0,0-2h-81a1,1,0,1,0,0,2h9.5v4h-9.5a1,1,0,1,0,0,2h9.5v4h-9.5a1,1,0,1,0,0,2h9.5v4h-8.5a2,2,0,1,0,0,4H701.115a1.49065,1.49065,0,0,0-.09179.5v14a1.5,1.5,0,0,0,3,0v-14a1.49065,1.49065,0,0,0-.0918-.5H761.115a1.49065,1.49065,0,0,0-.09179.5v14a1.5,1.5,0,0,0,3,0v-14a1.49065,1.49065,0,0,0-.0918-.5h8.0918a2,2,0,0,0,0-4h-8.5v-4h9.5a1,1,0,0,0,0-2h-9.5v-4Zm-69.5-6h58v4h-58Zm58,16h-58v-4h58Zm0-6h-58v-4h58Z" transform="translate(-243.9768 -259.83915)" fill="#3f3d56"/><path d="M433.0232,581.83915a1,1,0,0,0,0-2h-9.5v-4h9.5a1,1,0,0,0,0-2h-81a1,1,0,0,0,0,2h9.5v4h-9.5a1,1,0,0,0,0,2h9.5v4h-9.5a1,1,0,0,0,0,2h9.5v4h-8.5a2,2,0,0,0,0,4H361.115a1.49065,1.49065,0,0,0-.09179.5v14a1.5,1.5,0,0,0,3,0v-14a1.49065,1.49065,0,0,0-.0918-.5H421.115a1.49065,1.49065,0,0,0-.09179.5v14a1.5,1.5,0,0,0,3,0v-14a1.49065,1.49065,0,0,0-.0918-.5h8.0918a2,2,0,0,0,0-4h-8.5v-4h9.5a1,1,0,0,0,0-2h-9.5v-4Zm-69.5-6h58v4h-58Zm58,16h-58v-4h58Zm0-6h-58v-4h58Z" transform="translate(-243.9768 -259.83915)" fill="#3f3d56"/><path d="M748.0232,576.33915h-3a1.50164,1.50164,0,0,1-1.5-1.5v-3a1.50164,1.50164,0,0,1,1.5-1.5h3a1.50165,1.50165,0,0,1,1.5,1.5v3A1.50164,1.50164,0,0,1,748.0232,576.33915Z" transform="translate(-243.9768 -259.83915)" fill="#ccc"/><path d="M746.57959,573.03349a.96634.96634,0,0,1-.17065-.01465.99974.99974,0,0,1-.81616-1.15478l9.88964-57.54639a1.00006,1.00006,0,0,1,1.9712.33887L747.564,572.20292A1.00042,1.00042,0,0,1,746.57959,573.03349Z" transform="translate(-243.9768 -259.83915)" fill="#ccc"/><path d="M746.57715,573.03349a1.00042,1.00042,0,0,1-.98437-.83057l-9.88941-57.54638a1.00005,1.00005,0,0,1,1.97119-.33887l9.88941,57.54639a.99975.99975,0,0,1-.81616,1.15478A.96847.96847,0,0,1,746.57715,573.03349Z" transform="translate(-243.9768 -259.83915)" fill="#ccc"/><path d="M767.86868,504.4672c.964-6.82917-2.68315-12.99053-8.14673-13.7618s-10.6738,4.13975-11.63784,10.96892c-.81306,5.75966,1.66046,11.03068,5.73088,13.0074l-.23177,1.64182,4.94614.69822.23177-1.64182C763.21967,514.60721,767.05562,510.22686,767.86868,504.4672Z" transform="translate(-243.9768 -259.83915)" fill="#ff6584"/><path d="M744.90186,501.35957c-1.18349-6.79458-6.54917-11.53523-11.98508-10.5884s-8.88276,7.22246-7.69928,14.017c.99814,5.73048,4.97319,9.985,9.4543,10.61375l.28453,1.63351,4.92108-.85716-.28452-1.63351C743.59753,512.438,745.9,507.09006,744.90186,501.35957Z" transform="translate(-243.9768 -259.83915)" fill="#ccc"/><path d="M746.5232,571.83915a1,1,0,0,1-1-1V511.68144a1,1,0,1,1,2,0v59.15771A1.00005,1.00005,0,0,1,746.5232,571.83915Z" transform="translate(-243.9768 -259.83915)" fill="#ccc"/><path d="M755.89394,500.31825c0-6.89689-4.47262-12.488-9.99036-12.488s-9.99037,5.59107-9.99037,12.488c0,5.81676,3.186,10.69029,7.49277,12.07865V514.055h4.99519V512.3969C752.70793,511.00854,755.89394,506.135,755.89394,500.31825Z" transform="translate(-243.9768 -259.83915)" fill="#5392f0"/><path d="M954.4615,613.37629h-709.294a1.19068,1.19068,0,1,1,0-2.38136h709.294a1.19068,1.19068,0,1,1,0,2.38136Z" transform="translate(-243.9768 -259.83915)" fill="#ccc"/><polygon points="553.475 351.407 551.2 351.406 550.118 342.633 553.475 342.633 553.475 351.407" fill="#a0616a"/><path d="M549.25143,350.7566H553.962a0,0,0,0,1,0,0v2.76191a0,0,0,0,1,0,0h-7.14847a0,0,0,0,1,0,0v-.324A2.43788,2.43788,0,0,1,549.25143,350.7566Z" fill="#2f2e41"/><polygon points="569.978 348.83 567.909 349.775 563.28 342.245 566.333 340.85 569.978 348.83" fill="#a0616a"/><path d="M810.31458,609.23578h4.71059a0,0,0,0,1,0,0v2.76191a0,0,0,0,1,0,0H807.8767a0,0,0,0,1,0,0v-.324A2.43788,2.43788,0,0,1,810.31458,609.23578Z" transform="translate(-424.31874 132.48349) rotate(-24.54855)" fill="#2f2e41"/><path d="M797.3065,608.93242h-2.17287a.838.838,0,0,1-.8327-.77435L793.116,576.51493a.83482.83482,0,0,1,.91377-.89139l12.56661,1.33456a.83511.83511,0,0,1,.75366.81512l.26334,13.95815a.64772.64772,0,0,0,.0434.2214l5.15488,13.36769a.83466.83466,0,0,1-.49036,1.08362l-2.20191.81132a.83507.83507,0,0,1-1.031-.40149l-6.3325-12.31323a.83067.83067,0,0,1-.075-.212l-1.08177-5.21214a.64933.64933,0,0,0-1.28088.058l-2.1822,19.058A.83469.83469,0,0,1,797.3065,608.93242Z" transform="translate(-243.9768 -259.83915)" fill="#2f2e41"/><circle cx="554.41167" cy="287.37723" r="4.55672" fill="#a0616a"/><path d="M801.53,579.40233a16.47753,16.47753,0,0,1-8.3293-2.38041h0a.82928.82928,0,0,1-.39275-.76774l1.108-15.83887a6.8665,6.8665,0,0,1,3.13184-5.31577,6.61029,6.61029,0,0,1,5.89885-.703,4.6552,4.6552,0,0,1,1.1998.62162,7.921,7.921,0,0,1,3.2459,7.55323c-.81263,6.163.10794,14.4765.21556,15.40413l.00779.06686-.06115.02808A14.29346,14.29346,0,0,1,801.53,579.40233Z" transform="translate(-243.9768 -259.83915)" fill="#5392f0"/><path d="M807.33123,581.66479a1.86556,1.86556,0,0,0,.14863-2.85683l2.67373-6.0667-3.39673.57565-2.01827,5.67279a1.87572,1.87572,0,0,0,2.59264,2.67509Z" transform="translate(-243.9768 -259.83915)" fill="#a0616a"/><path d="M807.587,577.91725a.83226.83226,0,0,1-.61447-.27086l-.99675-1.08743a.83906.83906,0,0,1-.18521-.80063l2.28289-7.7267L804.6,560.73739a1.546,1.546,0,0,1-.10567-1.02891,1.54159,1.54159,0,0,1,2.85478-.36471l4.69555,7.61909a2.12444,2.12444,0,0,1,.128,1.99078l-3.82368,8.47208a.83275.83275,0,0,1-.62887.48084A.84686.84686,0,0,1,807.587,577.91725Z" transform="translate(-243.9768 -259.83915)" fill="#5392f0"/><path d="M802.14282,551.23369c-.47251.081-.86133-.5767-.92013-1.03934a8.139,8.139,0,0,1,.1282-1.36513,1.11959,1.11959,0,0,0-.67572-1.15447c-.50045-.14288-.96436.25856-1.47667.21029-.71389-.06727-1.07231-.90272-1.15879-1.57856s-.15443-1.47619-.77269-1.86159c-.61634-.38422-1.3788-.10467-2.087-.09271a2.85054,2.85054,0,0,1-2.69513-2.019.67893.67893,0,0,0,.77447-.31016.68713.68713,0,0,0-.20675-.81228l1.35679.66438a.72885.72885,0,0,1,.48008-.95016,2.56284,2.56284,0,0,1,1.25928-.01265c2.12436.33005,4.58494.16738,5.99407,1.78712a7.50666,7.50666,0,0,1,1.66974,4.63817A12.87378,12.87378,0,0,1,802.14282,551.23369Z" transform="translate(-243.9768 -259.83915)" fill="#2f2e41"/><path d="M777.98114,559.00176a1.86562,1.86562,0,0,1,2.6814.99684l6.62958-.04777-1.87587,2.88969-6.008-.39766a1.87572,1.87572,0,0,1-1.42714-3.4411Z" transform="translate(-243.9768 -259.83915)" fill="#a0616a"/><path d="M781.43079,562.15135a.83229.83229,0,0,1,.13988-.65678l.86134-1.19755a.839.839,0,0,1,.746-.34457l7.75489-.3249,6.70769-3.90356a1.546,1.546,0,0,1,.98574-.31326,1.54159,1.54159,0,0,1,.93917,2.72043l-6.50155,6.1505a2.12446,2.12446,0,0,1-1.92286.53121l-9.07376-2.01581a.83275.83275,0,0,1-.599-.51761A.84875.84875,0,0,1,781.43079,562.15135Z" transform="translate(-243.9768 -259.83915)" fill="#5392f0"/><path d="M667.42979,607.50944a1.92091,1.92091,0,0,0-1.4958-2.53735l-1.15177-6.72826-2.58933,2.42448,1.49071,6.01757a1.93128,1.93128,0,0,0,3.74619.82356Z" transform="translate(-243.9768 -259.83915)" fill="#ffb8b8"/><path d="M665.70933,604.29038l-2.54211.66712a.47953.47953,0,0,1-.58075-.332l-4.56819-16.18538-1.38015-4.12893a2.48689,2.48689,0,0,1,2.65657-3.25742h0a2.48517,2.48517,0,0,1,2.08675,1.7632l3.65035,12.3387,1.03051,8.61611a.47963.47963,0,0,1-.25112.4789A.47038.47038,0,0,1,665.70933,604.29038Z" transform="translate(-243.9768 -259.83915)" fill="#5392f0"/><circle cx="412.44205" cy="313.79281" r="4.69169" fill="#ffb8b8"/><polygon points="398.628 377.976 396.383 377.308 397.891 368.332 401.204 369.318 398.628 377.976" fill="#ffb8b8"/><path d="M642.52992,640.16085l-7.23761-2.15347.02723-.09155a2.93908,2.93908,0,0,1,3.65521-1.979l.00018,0,4.42046,1.31528Z" transform="translate(-243.9768 -259.83915)" fill="#2f2e41"/><polygon points="423.22 377.861 420.878 377.86 419.764 368.827 422.074 368.828 423.22 377.861" fill="#ffb8b8"/><path d="M667.79388,639.96982l-7.55119-.00028V639.874a2.93907,2.93907,0,0,1,2.93915-2.9391h.00019l4.612.00019Z" transform="translate(-243.9768 -259.83915)" fill="#2f2e41"/><path d="M643.46832,635.159h-2.35139a.85977.85977,0,0,1-.84547-1.015c-1.49944-.667,6.57421-39.38581,8.48181-38.63525l.06277-.09047,9.60593.78386c4.30256,8.61113,7.02621,22.86015,9.57459,37.73517a.85953.85953,0,0,1-.79146,1.07l-2.64194.12816a.85554.85554,0,0,1-.83982-.5393L653.60129,609.292a.27371.27371,0,0,0-.27259-.18.28091.28091,0,0,0-.26406.19232l-8.78433,25.27736A.86036.86036,0,0,1,643.46832,635.159Z" transform="translate(-243.9768 -259.83915)" fill="#2f2e41"/><path d="M658.62316,596.95988l-.0734-.00541-10.22741-.77192,1.794-11.40963a5.97381,5.97381,0,0,1,5.10442-5.0076h0q.11787-.01651.23733-.03227a5.90271,5.90271,0,0,1,5.365,2.14712,5.977,5.977,0,0,1,1.02283,5.76293Z" transform="translate(-243.9768 -259.83915)" fill="#5392f0"/><path d="M665.52923,578.99862c-3.2261,1.47578-7.60328,1.21172-12.60743,0,.69247-1.89675,1.23212-3.72882.62-5.07366a4.09607,4.09607,0,0,1-.13439-3.27856,6.30555,6.30555,0,0,1,5.81807-3.87317h0a6.30371,6.30371,0,0,1,6.30371,6.30371Z" transform="translate(-243.9768 -259.83915)" fill="#2f2e41"/><path d="M411.20374,307.363h3.47191a0,0,0,0,1,0,0v4.93305a0,0,0,0,1,0,0h-8.405a0,0,0,0,1,0,0v0A4.933,4.933,0,0,1,411.20374,307.363Z" fill="#2f2e41"/><path d="M648.10123,608.57065a1.92084,1.92084,0,0,0-.13231-2.94245l2.13559-6.48346-3.42358.92833-1.50312,6.01449a1.93128,1.93128,0,0,0,2.92342,2.48309Z" transform="translate(-243.9768 -259.83915)" fill="#ffb8b8"/><path d="M648.08993,604.9207l-2.55831-.602a.47954.47954,0,0,1-.35747-.56541l3.54943-16.43888.71573-4.29425a2.48688,2.48688,0,0,1,3.87331-1.63264h0a2.48516,2.48516,0,0,1,1.01714,2.53551l-2.55757,12.61061-3.12742,8.09435a.47963.47963,0,0,1-.44627.30538A.47045.47045,0,0,1,648.08993,604.9207Z" transform="translate(-243.9768 -259.83915)" fill="#5392f0"/><path d="M727.15562,569.19284a1.941,1.941,0,0,0-.28924.099L719.18,564.33334l.106-2.21959-3.32884-.59784-.56957,3.91111a1.47552,1.47552,0,0,0,.84737,1.55491l9.46662,4.32147a1.93607,1.93607,0,1,0,1.454-2.11056Z" transform="translate(-243.9768 -259.83915)" fill="#ffb8b8"/><path d="M718.86644,564.19668l-4.12219-.761a.83.83,0,0,1-.63463-1.08479l1.35277-3.95415a2.305,2.305,0,0,1,4.53093.85019l-.14676,4.163a.83.83,0,0,1-.98012.7867Z" transform="translate(-243.9768 -259.83915)" fill="#3f3d56"/><path d="M733.20052,553.47163a1.94129,1.94129,0,0,0-.04413.3025l-7.923,4.57077-1.9258-1.10866-2.053,2.6877,3.21852,2.294a1.47551,1.47551,0,0,0,1.77028-.04313l8.17-6.44538a1.93607,1.93607,0,1,0-1.21282-2.25777Z" transform="translate(-243.9768 -259.83915)" fill="#ffb8b8"/><path d="M724.96848,558.56138l-2.56071,3.31879a.83.83,0,0,1-1.2549.06874l-2.89889-3.01027a2.305,2.305,0,0,1,2.82683-3.64159l3.63584,2.033a.83.83,0,0,1,.25183,1.2313Z" transform="translate(-243.9768 -259.83915)" fill="#ccc"/><circle cx="470.50539" cy="286.26798" r="4.53001" fill="#ffb8b8"/><polygon points="474.782 351.13 477.043 351.13 478.118 342.408 474.781 342.408 474.782 351.13" fill="#ffb8b8"/><path d="M718.18153,610.23071l4.45306-.00018h.00018a2.83779,2.83779,0,0,1,2.83786,2.83783v.09222l-7.291.00027Z" transform="translate(-243.9768 -259.83915)" fill="#2f2e41"/><polygon points="467.035 351.13 469.296 351.13 470.372 342.408 467.035 342.408 467.035 351.13" fill="#ffb8b8"/><path d="M710.43509,610.23071l4.45306-.00018h.00018a2.83779,2.83779,0,0,1,2.83786,2.83783v.09222l-7.291.00027Z" transform="translate(-243.9768 -259.83915)" fill="#2f2e41"/><path d="M718.07984,607.65886l-2.30648-17.84519a.09074.09074,0,0,0-.09335-.0861.08767.08767,0,0,0-.09082.0888l-.66283,17.58619a.82743.82743,0,0,1-.82943.79881h-2.73885a.82515.82515,0,0,1-.82971-.81l-.711-29.301,12.2571.12248.306,29.39515a.83061.83061,0,0,1-.29111.6124.8186.8186,0,0,1-.638.19182l-2.656.00739A.83075.83075,0,0,1,718.07984,607.65886Z" transform="translate(-243.9768 -259.83915)" fill="#2f2e41"/><path d="M709.63581,578.89177a.82942.82942,0,0,1-.52378-.65112l-.12234-16.10329c-.5417-3.5854-1.18242-7.09874,1.95241-8.9154l.27621-.82871a.463.463,0,0,1,.42426-.3152l5.94681-.16985a.45719.45719,0,0,1,.437.27918l.44232,1.03224.15707.08952a8.74469,8.74469,0,0,1,4.35246,8.63351l-.34,2.8707-.24154,13.41578a.83716.83716,0,0,1-.43566.71686,11.28393,11.28393,0,0,1-5.45252,1.26946A20.42683,20.42683,0,0,1,709.63581,578.89177Z" transform="translate(-243.9768 -259.83915)" fill="#ccc"/><path d="M714.33469,550.805a4.83323,4.83323,0,1,1,.90563-9.55861,5.55572,5.55572,0,0,1,3.31525-.90836,3.24956,3.24956,0,0,1,2.743,1.87428,2.32054,2.32054,0,0,1-1.11163,2.94684,4.192,4.192,0,0,1-2.2119.0315,3.29833,3.29833,0,0,0-2.18677.19325c-.64271.381-.93162,1.40274-.356,1.87913a1.98057,1.98057,0,0,1,.56885,2.18011A2.16655,2.16655,0,0,1,714.33469,550.805Z" transform="translate(-243.9768 -259.83915)" fill="#2f2e41"/><polygon points="207.665 377.775 209.869 377.775 210.917 369.275 207.664 369.275 207.665 377.775" fill="#ffb8b8"/><path d="M450.66968,640.16085l-.00024-3.67579,4.75-.00048a3.17962,3.17962,0,0,1,3.176,3.17578v.5Z" transform="translate(-243.9768 -259.83915)" fill="#2f2e41"/><polygon points="195.787 377.775 197.99 377.775 199.038 369.275 195.786 369.275 195.787 377.775" fill="#ffb8b8"/><path d="M438.79151,640.16085l-.00025-3.67579,4.75-.00048a3.17963,3.17963,0,0,1,3.176,3.17578v.5Z" transform="translate(-243.9768 -259.83915)" fill="#2f2e41"/><circle cx="202.24055" cy="312.61485" r="4.73443" fill="#ffb8b8"/><path d="M462.406,603.33022a1.80751,1.80751,0,0,0-2.33093-1.49955l-2.6459-3.17179-2.31965,1.1378,3.79943,4.4267a1.81732,1.81732,0,0,0,3.49705-.89316Z" transform="translate(-243.9768 -259.83915)" fill="#ffb8b8"/><path d="M439.63431,606.53809a1.80753,1.80753,0,0,0-1.16257-2.516l-.53121-4.0962-2.568-.28431.83142,5.77409a1.81732,1.81732,0,0,0,3.43034,1.12243Z" transform="translate(-243.9768 -259.83915)" fill="#ffb8b8"/><path d="M442.26073,581.39635h0a2.32927,2.32927,0,0,0-3.99983.56485l-3.88056,9.6844a6.01634,6.01634,0,0,0-.3664,3.12153l1.264,8.51206a.77105.77105,0,0,0,.989.62382l1.66531-.51139a.77106.77106,0,0,0,.53946-.8269v0a28.00923,28.00923,0,0,1,2.24834-14.69451l1.8294-4.092A2.3293,2.3293,0,0,0,442.26073,581.39635Z" transform="translate(-243.9768 -259.83915)" fill="#ccc"/><path d="M445.0646,577.18824a5.05132,5.05132,0,1,1,.9465-9.98994,5.80647,5.80647,0,0,1,3.46485-.94935,3.39619,3.39619,0,0,1,2.86674,1.95886,2.42524,2.42524,0,0,1-1.16179,3.07981,4.38115,4.38115,0,0,1-2.31171.03293,3.44713,3.44713,0,0,0-2.28545.202c-.6717.39823-.97365,1.466-.37208,1.96393a2.07,2.07,0,0,1,.59452,2.27849A2.26431,2.26431,0,0,1,445.0646,577.18824Z" transform="translate(-243.9768 -259.83915)" fill="#2f2e41"/><path d="M439.19059,603.143l-.83982,31.87117a.771.771,0,0,0,.81007.79036l2.76654-.14115a.771.771,0,0,0,.7222-.649l3.29066-20.70051a.38552.38552,0,0,1,.757-.02356l4.45426,19.93092a.771.771,0,0,0,1.01079.55832l2.74565-.1677a.771.771,0,0,0,.5108-.78127l-2.3968-30.9892Z" transform="translate(-243.9768 -259.83915)" fill="#2f2e41"/><path d="M437.84282,588.0053a8.68786,8.68786,0,0,1,7.92759-9.54184c2.08524-.14807,5.32257-.201,6.38975,2.53221,3.21476,8.23358-2.413,8.03351-.474,15.16706s3.65148,7.54238.991,8.05751-14.6242,3.55588-14.13294-1.465C438.84624,599.669,438.30486,592.823,437.84282,588.0053Z" transform="translate(-243.9768 -259.83915)" fill="#ccc"/><path d="M451.59088,580.15819h0a2.32926,2.32926,0,0,0-3.14084,2.54024l1.51108,9.44359a9.22856,9.22856,0,0,0,1.97873,4.39627l4.90762,5.98027a.771.771,0,0,0,1.169.02683l1.16572-1.29457a.77105.77105,0,0,0,.03777-.98658l-.34333-.44555a25.96568,25.96568,0,0,1-5.21317-12.7568l-.60073-5.00886A2.32929,2.32929,0,0,0,451.59088,580.15819Z" transform="translate(-243.9768 -259.83915)" fill="#ccc"/><path d="M462.63165,605.52468a1.85669,1.85669,0,0,0,.66394-2.76846l1.38833-13.574h-3.00033l-1.10334,13.25433a1.86672,1.86672,0,0,0,2.0514,3.08815Z" transform="translate(-243.9768 -259.83915)" fill="#a0616a"/><circle cx="221.40969" cy="317.60698" r="4.24487" fill="#a0616a"/><path d="M466.18563,597.08728a.77631.77631,0,0,1-.74819-.57013,42.9271,42.9271,0,0,0-2.62983-6.20971,5.14371,5.14371,0,0,1,2.921-7.10161h0a5.1414,5.1414,0,0,1,6.60672,3.27523,25.44294,25.44294,0,0,1,.96321,8.48484.77962.77962,0,0,1-.61076.71984l-6.33532,1.38348A.774.774,0,0,1,466.18563,597.08728Z" transform="translate(-243.9768 -259.83915)" fill="#5392f0"/><polygon points="228.344 377.557 230.463 377.557 231.471 369.384 228.343 369.384 228.344 377.557" fill="#a0616a"/><path d="M479.02588,639.86348H471.3667l-.00024-3.57275h4.5874a3.072,3.072,0,0,1,3.072,3.07275Z" transform="translate(-243.9768 -259.83915)" fill="#2f2e41"/><polygon points="207.156 374.811 209.013 375.832 213.834 369.156 211.094 367.649 207.156 374.811" fill="#a0616a"/><path d="M455.82032,640.04268l-6.71167-3.68994,1.72119-3.13135,4.019,2.21a3.07268,3.07268,0,0,1,1.2124,4.17286Z" transform="translate(-243.9768 -259.83915)" fill="#2f2e41"/><path d="M472.22166,632.85975a.77763.77763,0,0,1-.77051-.67765l-2.64987-20.41951a.43208.43208,0,0,0-.80685-.15309l-11.04356,20.03622a.782.782,0,0,1-.95795.35157l-2.40716-.91714a.77768.77768,0,0,1-.44347-1.01993l7.65015-18.793a.59917.59917,0,0,0,.03907-.14886c1.03618-8.01986,3.67254-12.09822,4.45584-13.15714a.60226.60226,0,0,0,.0857-.54836l-.10768-.323a.77733.77733,0,0,1,.14966-.75646c2.82253-3.2149,7.74209-1.46061,7.79146-1.44255l.02464.00911.01544.0211c5.51628,7.56516,3.47672,32.13664,3.01186,36.98548a.7756.7756,0,0,1-.71448.69992l-3.2619.25114C472.26179,632.85907,472.24167,632.85975,472.22166,632.85975Z" transform="translate(-243.9768 -259.83915)" fill="#2f2e41"/><path d="M481.88894,582.377a1.81834,1.81834,0,0,0-.04136.28346l-7.42431,4.28306-1.80458-1.03887-1.92379,2.51852,3.01593,2.14957a1.38265,1.38265,0,0,0,1.65885-.04041l7.65573-6.03967a1.81421,1.81421,0,1,0-1.13647-2.11566Z" transform="translate(-243.9768 -259.83915)" fill="#a0616a"/><path d="M474.17507,587.14637l-2.39952,3.10988a.77775.77775,0,0,1-1.17592.06441l-2.71641-2.82079a2.15992,2.15992,0,0,1,2.64889-3.41236l3.407,1.90506a.77774.77774,0,0,1,.236,1.1538Z" transform="translate(-243.9768 -259.83915)" fill="#5392f0"/><path d="M464.87487,592.54939l-3.86547-.698a.77773.77773,0,0,1-.59865-1.01417l1.25311-3.71018a2.15992,2.15992,0,0,1,4.24881.78006l-.12226,3.90151a.77774.77774,0,0,1-.91554.74076Z" transform="translate(-243.9768 -259.83915)" fill="#5392f0"/><path d="M466.05835,576.46976c1.091.74671,2.52356,1.51429,3.63787.7191a2.02776,2.02776,0,0,0,.6655-2.33749c-.53357-1.52584-1.99954-2.19758-3.40137-2.71249a9.76789,9.76789,0,0,0-5.688-.72252c-1.88132.47938-3.544,2.30086-3.20436,4.21236.27311,1.53718,1.72311,2.81624,1.51727,4.36387-.20717,1.55756-1.95882,2.37742-3.50524,2.65579s-3.27691.36782-4.38827,1.47859c-1.41773,1.417-1.0637,3.94971.27033,5.44578A9.93836,9.93836,0,0,0,457.26,592.208c2.58458.61082,5.38.93183,7.83471-.08188s4.36492-3.7425,3.65383-6.30132a8.79123,8.79123,0,0,0-1.69174-2.88357,8.036,8.036,0,0,1-1.63711-2.91025,3.02544,3.02544,0,0,1,.54646-2.64685.76686.76686,0,0,0,.10273-.89637Z" transform="translate(-243.9768 -259.83915)" fill="#2f2e41"/></svg>