<svg xmlns="http://www.w3.org/2000/svg" width="500" height="380" data-name="Layer 1" viewBox="0 0 1080 589.339"><path fill="#5392f0" d="M1080 552.48c0-32.167-16.322-58.243-36.457-58.243-12.655 0-23.8 10.305-30.337 25.945a18.287 18.287 0 0 0-6.967-1.398c-6.094 0-11.729 3.123-16.324 8.408-5.893-19.5-18.387-32.955-32.85-32.955-13.522 0-25.316 11.77-31.61 29.24a19.915 19.915 0 0 0-12.477-4.693c-15.452 0-27.978 20.012-27.978 44.699a65.145 65.145 0 0 0 4.408 24.068h183.24c4.613-9.756 7.352-21.901 7.352-35.071Z"/><path fill="#f2f2f2" d="M949.299 216.151c-28.71-62.107-84.896-115.09-152.771-123.725-17.947-2.284-36.684-1.368-53.335 5.705-21.857 9.285-37.965 28.025-54.246 45.313a654.108 654.108 0 0 1-114.96 96.847c-20.687 13.696-42.876 26.475-67.437 29.98-49.246 7.025-97.956-26.557-120.414-70.943-14.03-27.726-20.513-60.28-31.854-89.119-13.061-.025-28.623-.02-45.365.057-46.277.214-83.944.897-83.944.897s44.774-59.307 83.776-37.334c12.464 7.022 25.52 13.288 37.517 18.567-6.816-13.111-15.414-24.908-27.24-34.392-23.322-18.702-54.908-23.948-84.77-22.555-31.356 1.462-63.001 9.857-88.481 28.192-45.39 32.662-64.135 90.153-80.178 143.723l38.778 19.44c16.633-14.38 40.955-28.605 63.374-15.975 39.003 21.973 83.807 36.562 83.807 36.562s-37.362-.338-83.639-.125c-7.772.036-15.292.085-22.441.142L576 463.237c142 2 249.068-5.68 384 0 7.037.296 22.866-36.592 22.918-46.3.372-68.421-4.909-138.678-33.619-200.786Zm-137.882 18.615c-46.277.214-83.944.897-83.944.897s44.774-59.307 83.776-37.334 83.807 36.562 83.807 36.562-37.362-.338-83.639-.125Z"/><path fill="#5392f0" d="M932 437.737c0-23.389-14.48-42.349-32.343-42.349-11.228 0-21.116 7.493-26.915 18.865a19.362 19.362 0 0 0-6.181-1.016 21.059 21.059 0 0 0-14.483 6.113c-5.227-14.179-16.313-23.962-29.143-23.962-11.997 0-22.46 8.559-28.044 21.26a20.107 20.107 0 0 0-11.07-3.411c-13.708 0-24.821 14.55-24.821 32.5a39.928 39.928 0 0 0 3.91 17.5h162.567a51.201 51.201 0 0 0 6.523-25.5Z" opacity=".3"/><path fill="#2f2e41" d="M1080 589.237H82v-2h997l1 2zM998 465.237H0v-2h997l1 2z"/><path fill="#ffb8b8" d="M423.63 281.137s6.285-46.094 16.76-33.523 0 31.428 0 31.428l-8.38 10.475-8.38-6.285Z"/><path fill="#5392f0" d="M398.488 295.803s20.951-23.047 25.142-18.857 16.76 6.286 14.666 14.666-46.094 35.618-46.094 35.618Z"/><path d="M398.488 295.803s20.951-23.047 25.142-18.857 16.76 6.286 14.666 14.666-46.094 35.618-46.094 35.618Z" opacity=".1"/><path fill="#ffb8b8" d="M279.064 293.708v16.76s-2.095 37.714 10.475 35.619 6.286-33.523 6.286-33.523l-2.095-18.856ZM285.35 415.227s-18.857 29.332-25.143 31.427-39.808 20.952-43.998 39.808l-29.332 37.713 14.666 18.857s67.045-71.236 85.901-77.521 37.713-37.713 37.713-37.713ZM434.105 367.038s39.808 6.286 33.523 31.428-67.045 77.52-67.045 77.52l-2.095 12.571-23.047 4.19-10.476-10.475 2.095-6.286s25.142-23.046 27.237-31.427 25.142-41.903 35.618-43.998l-14.666-8.38Z"/><path fill="#2f2e41" d="M193.162 524.175s8.38-12.57-4.19-10.476-20.952 4.19-20.952 12.571 10.476 67.045 23.047 62.855 2.095-23.047 2.095-23.047 6.286-16.761 10.476-18.856 4.19-12.571 0-12.571-12.571-6.286-10.476-10.476ZM371.25 478.082s0-10.476-8.38 0-12.57 18.856-4.19 25.141 37.713 20.952 37.713 20.952 31.427 6.286 27.237-8.38c0 0-20.952-10.476-20.952-18.857s0-23.047-6.285-18.856-25.142 6.285-25.142 0ZM331.443 320.945s-29.333 4.19-27.237 46.093c0 0-37.713 37.713-27.238 50.284s33.523 35.618 41.904 29.332 33.522-54.474 33.522-54.474 58.665 20.952 69.14 10.476 20.952-35.618 20.952-35.618l-52.379-27.237Z"/><circle cx="413.154" cy="176.379" r="25.142" fill="#ffb8b8"/><path fill="#ffb8b8" d="M394.297 178.474s-14.666 23.047-18.856 25.142 29.332 23.047 29.332 23.047 0-27.238 10.476-33.523Z"/><path fill="#5392f0" d="M392.202 201.52s-33.522-10.475-39.808 6.286-20.951 48.189-18.856 69.14 6.285 16.762 0 23.047-10.476 2.095-8.38 10.476 4.19 8.38 2.094 12.57 25.142 18.857 48.189 20.952l23.047 2.096s0-37.713 4.19-46.094 12.571-25.142 12.571-31.427v-16.631a63.607 63.607 0 0 0-8.38-31.558s-12.572-18.856-14.667-18.856Z"/><path fill="#5392f0" d="M367.06 209.901s-77.52 6.286-85.901 27.237-12.571 62.855-4.19 62.855 18.856 4.19 20.951 0 10.476-46.093 12.571-46.093 64.95-6.286 64.95-6.286 27.237-33.522-8.38-37.713Z"/><path fill="#2f2e41" d="M414.164 170.146s6.672-11.595 15.012-1.524 21.907-8.436 19.824-12.385-9.438.177-22.042-3.943-36.885-12.514-40.951 14.867 5.618 24.511 5.618 24.511 4.44-24.263 8.451-17.293l4.013 6.97 3.48.856Z"/><circle cx="651.309" cy="75.314" r="30.674" fill="#2f2e41"/><path fill="#9f616a" d="M641.504 98.018s1.587 28.572-1.588 28.572 19.842 13.493 19.842 13.493l14.286-7.937v-9.524s-19.048-2.381-11.111-23.017-21.43-1.587-21.43-1.587ZM574.835 411.517l-2.381 23.81 7.937 2.381 6.349-6.349 2.381-19.842h-14.286zM689.124 425.01l3.968 15.079 11.111 7.143 11.906-6.349-13.493-22.223-13.492 6.35z"/><circle cx="649.043" cy="87.304" r="23.016" fill="#9f616a"/><path fill="#9f616a" d="m635.154 173.417-5.555-2.381s-9.524-5.556-10.318-16.667 7.937-25.398 7.937-25.398l12.698-3.968 14.92 12.143.16 19.604Z"/><path fill="#9f616a" d="m629.599 130.559-3.175-1.588s-15.873-.793-17.46 18.255-7.144 50.794-7.144 50.794-12.698 22.223-11.905 46.033l-6.35 20.636s-8.73 30.159 1.588 30.159 9.524-32.54 9.524-32.54 19.048-46.033 20.636-53.97 15.08-45.239 11.111-55.557 3.175-22.222 3.175-22.222ZM641.504 180.56v8.73s5.555 6.35 3.174 10.318-4.762 11.905-4.762 11.905l11.112 17.46 37.302 3.175 7.418-49.7ZM676.425 125.003l6.35-3.175s13.492-9.524 24.603-11.111L741.506 87.7l22.223-53.175s-.794-28.572 5.555-25.398 5.556 27.779 5.556 27.779-11.905 49.207-22.223 62.7-47.62 35.715-47.62 35.715-10.318 11.905-9.524 17.46-19.048-27.778-19.048-27.778Z"/><path fill="#2f2e41" d="M647.06 211.513s-8.731-5.556-14.287 3.968-15.873 11.905-22.222 40.477-21.43 73.811-25.398 76.986-20.635 36.509-11.111 83.335h15.873l13.493-67.462s43.651-53.969 46.826-76.192l14.286 83.335s.794 31.747 12.699 46.827l12.698 30.16 16.667-7.937-19.048-76.193s9.524-76.985 3.175-98.414l-.912-28.094s-26.073 1.109-42.74-10.796ZM580.391 431.359h-9.524c-1.587 0-14.286 10.318-8.73 15.873s14.286 15.874 14.286 15.874 30.953 3.936 31.747-1.62-13.493-17.428-13.493-17.428l-3.968-12.699s-7.937-8.73-10.318 0ZM706.584 439.296s-13.492-.794-15.873-1.588-7.143 20.636 0 22.223 36.509 3.968 36.509 3.968 23.016-.793 21.429-7.143-32.54-19.048-32.54-19.048-3.969-7.936-9.525 1.588Z"/><path fill="#5392f0" d="m643.885 124.21-3.969-2.382-4.762 3.969s14.286 9.524 11.112 18.254-16.667 26.985-16.667 26.985 11.905 13.492 11.905 18.254c0 0 30.953-11.111 53.97 0 0 0 0-15.873 3.174-19.048s4.762-14.286-3.175-23.81a174.007 174.007 0 0 1-15.08-22.223l-7.936-4.762-4.088 1.297s8.056 9.02.12 9.815-20.636-1.588-24.604-6.35Z"/><path fill="#2f2e41" d="M673.728 23.016a16.767 16.767 0 0 1-10.4 5.448c-6.934.99-1.486 11.886-1.486 11.886s-1.981-3.962 1.98-7.429 9.906-5.447 9.906-9.905Z"/><circle cx="660.36" cy="42.628" r="8.549" fill="#2f2e41"/><path fill="#5392f0" d="M670.34 51.045c-6.604-3.45-17.965-6.162-24.001-5.968l1.527-5.838c5.344 3.63 16.645 6.394 24.001 5.969Z"/><path fill="#2f2e41" d="M656.696 51.56s-10.407 13.38-31.22 16.353-4.46 35.68-4.46 35.68-5.947-11.893 5.946-22.3 29.734-16.353 29.734-29.734Z"/><path fill="#2f2e41" d="M657.49 50.766s5.947 20.813 14.867 23.787 4.46 34.194-10.407 37.167c0 0 12.637-17.097 5.204-30.477s-11.894-23.787-9.664-30.477ZM742.696 15.873h54.763v6.349h-54.763z"/><ellipse cx="797.46" cy="19.048" fill="#2f2e41" rx="4.762" ry="19.048"/><ellipse cx="742.696" cy="19.048" fill="#2f2e41" rx="4.762" ry="19.048"/><path fill="#2f2e41" d="M770.475 442.882h54.763v6.349h-54.763z"/><ellipse cx="825.238" cy="446.057" fill="#2f2e41" rx="4.762" ry="19.048"/><ellipse cx="770.475" cy="446.057" fill="#2f2e41" rx="4.762" ry="19.048"/><path fill="#5392f0" d="M194 437.737c0-23.389-14.48-42.349-32.343-42.349-11.228 0-21.116 7.493-26.915 18.865a19.362 19.362 0 0 0-6.181-1.016 21.059 21.059 0 0 0-14.483 6.113c-5.227-14.179-16.313-23.962-29.143-23.962-11.997 0-22.46 8.559-28.044 21.26a20.107 20.107 0 0 0-11.07-3.411c-13.708 0-24.821 14.55-24.821 32.5a39.928 39.928 0 0 0 3.91 17.5h162.567a51.201 51.201 0 0 0 6.523-25.5Z" opacity=".3"/></svg>