<svg xmlns="http://www.w3.org/2000/svg" width="500" height="380" data-name="Layer 1" viewBox="0 0 712.046 380.322"><path fill="#f2f2f2" d="M712.046 225.224c0-31.583-25.62-106.527-57.224-106.527s-57.224 74.944-57.224 106.527a57.224 57.224 0 0 0 114.448 0Z"/><path fill="#ccc" d="M654.822 351.941a.654.654 0 0 1-.654-.654V217.702a.654.654 0 1 1 1.309 0v133.585a.654.654 0 0 1-.655.654Z"/><path fill="#ccc" d="M654.823 242.66a.653.653 0 0 1-.495-.225l-32.911-37.954a.654.654 0 0 1 .989-.858l32.91 37.954a.655.655 0 0 1-.493 1.083ZM654.822 264.564a.654.654 0 0 1-.462-1.117l18.7-18.701a.654.654 0 0 1 .926.925l-18.701 18.701a.652.652 0 0 1-.463.192Z"/><path fill="#f2f2f2" d="M81.046 280.584c0-17.785-14.427-59.988-32.224-59.988S16.598 262.8 16.598 280.584a32.224 32.224 0 0 0 64.448 0Z"/><path fill="#ccc" d="M48.822 351.941a.369.369 0 0 1-.368-.368v-75.225a.368.368 0 1 1 .737 0v75.225a.369.369 0 0 1-.369.368Z"/><path fill="#ccc" d="M48.822 290.403a.368.368 0 0 1-.278-.127L30.01 268.903a.369.369 0 0 1 .557-.483L49.1 289.793a.369.369 0 0 1-.279.61ZM48.822 302.737a.368.368 0 0 1-.26-.629l10.53-10.53a.368.368 0 0 1 .521.52l-10.53 10.531a.367.367 0 0 1-.26.108Z"/><path fill="#f2f2f2" d="M13.92 351.453a13.453 13.453 0 1 1 26.906 0"/><path fill="#ccc" d="M27.373 351.453a.364.364 0 0 1-.363-.364V344a.364.364 0 0 1 .727 0v7.09a.364.364 0 0 1-.364.364Z"/><path fill="#ccc" d="M27.373 349.016a.362.362 0 0 1-.237-.087l-4.363-3.745a.364.364 0 1 1 .474-.552l4.363 3.745a.364.364 0 0 1-.237.64Z"/><path fill="#f2f2f2" d="M55.37 351.453a13.453 13.453 0 0 1 26.905 0"/><path fill="#ccc" d="M68.822 351.453a.364.364 0 0 1-.363-.364V344a.364.364 0 1 1 .727 0v7.09a.364.364 0 0 1-.364.364Z"/><path fill="#ccc" d="M68.822 349.016a.362.362 0 0 1-.237-.087l-4.363-3.745a.364.364 0 0 1 .474-.552l4.363 3.745a.364.364 0 0 1-.237.64ZM304.838 298c-82.16 0-149-66.841-149-149s66.84-149 149-149 149 66.841 149 149-66.841 149-149 149Zm0-296c-81.056 0-147 65.944-147 147s65.944 147 147 147 147-65.944 147-147-65.944-147-147-147Z"/><path fill="#ccc" d="M304.838 138a1 1 0 0 1-1-1V1a1 1 0 0 1 2 0v136a1 1 0 0 1-1 1ZM452.838 150h-136a1 1 0 0 1 0-2h136a1 1 0 0 1 0 2ZM292.838 150H156.902a1 1 0 0 1 0-2h135.936a1 1 0 0 1 0 2ZM304.838 298a1 1 0 0 1-1-1V161a1 1 0 0 1 2 0v136a1 1 0 0 1-1 1ZM313.655 141.874a1 1 0 0 1-.707-1.707l95.743-95.744a1 1 0 1 1 1.414 1.414l-95.743 95.744a.996.996 0 0 1-.707.293ZM296.021 141.874a.996.996 0 0 1-.707-.293L199.57 45.837a1 1 0 1 1 1.414-1.414l95.744 95.744a1 1 0 0 1-.707 1.707ZM409.398 253.87a.996.996 0 0 1-.707-.293l-95.743-95.744a1 1 0 0 1 1.414-1.414l95.743 95.744a1 1 0 0 1-.707 1.707ZM200.277 253.87a1 1 0 0 1-.707-1.707l95.744-95.744a1 1 0 0 1 1.414 1.414l-95.744 95.744a.996.996 0 0 1-.707.293Z"/><path fill="#ccc" d="M304.838 251.5a102.5 102.5 0 1 1 102.5-102.5 102.616 102.616 0 0 1-102.5 102.5Zm0-203a100.5 100.5 0 1 0 100.5 100.5 100.614 100.614 0 0 0-100.5-100.5Z"/><circle cx="304.838" cy="149" r="12" fill="#3f3d56"/><path fill="#3f3d56" d="m258.381 351.695-10.543.305 51.457-207.695 9.565 2.918-50.479 204.472z"/><path fill="#3f3d56" d="m351.295 351.695 10.543.305-51.457-207.695-9.565 2.918 50.479 204.472z"/><path fill="#ccc" d="M287.838 31h33v18h-33z"/><path fill="#fff" d="M289.838 35h13v14h-13zM305.838 35h13v14h-13z"/><path fill="#ccc" d="M304.338 68.5a19.022 19.022 0 0 1-19-19V49a4.505 4.505 0 0 1 4.5-4.5h29a4.505 4.505 0 0 1 4.5 4.5v.5a19.022 19.022 0 0 1-19 19Z"/><path fill="#5392f0" d="M319.602 35.5h-30.528a2.5 2.5 0 0 1-2.236-3.618l6-12a2.486 2.486 0 0 1 2.236-1.382h18.528a2.486 2.486 0 0 1 2.236 1.382l6 12a2.5 2.5 0 0 1-2.236 3.618Z"/><path fill="#ccc" d="M376.838 71h33v18h-33z"/><path fill="#fff" d="M378.838 75h13v14h-13zM394.838 75h13v14h-13z"/><path fill="#ccc" d="M393.338 108.5a19.022 19.022 0 0 1-19-19V89a4.505 4.505 0 0 1 4.5-4.5h29a4.505 4.505 0 0 1 4.5 4.5v.5a19.022 19.022 0 0 1-19 19Z"/><path fill="#5392f0" d="M384.074 59.5a1.492 1.492 0 0 0-1.342.83l-6 12a1.5 1.5 0 0 0 1.342 2.17h30.528a1.5 1.5 0 0 0 1.341-2.17l-6-12a1.492 1.492 0 0 0-1.341-.83Z"/><path fill="#ccc" d="M411.838 161h33v18h-33z"/><path fill="#fff" d="M413.838 165h13v14h-13zM429.838 165h13v14h-13z"/><path fill="#ccc" d="M428.338 198.5a19.022 19.022 0 0 1-19-19v-.5a4.505 4.505 0 0 1 4.5-4.5h29a4.505 4.505 0 0 1 4.5 4.5v.5a19.022 19.022 0 0 1-19 19Z"/><path fill="#5392f0" d="M443.602 165.5h-30.528a2.5 2.5 0 0 1-2.236-3.618l6-12a2.486 2.486 0 0 1 2.236-1.382h18.528a2.486 2.486 0 0 1 2.236 1.382l6 12a2.5 2.5 0 0 1-2.236 3.618Z"/><path fill="#ccc" d="M374.838 245h33v18h-33z"/><path fill="#fff" d="M376.838 249h13v14h-13zM392.838 249h13v14h-13z"/><path fill="#ccc" d="M391.338 282.5a19.022 19.022 0 0 1-19-19v-.5a4.505 4.505 0 0 1 4.5-4.5h29a4.505 4.505 0 0 1 4.5 4.5v.5a19.022 19.022 0 0 1-19 19Z"/><path fill="#5392f0" d="M406.602 249.5h-30.528a2.5 2.5 0 0 1-2.236-3.618l6-12a2.486 2.486 0 0 1 2.236-1.382h18.528a2.486 2.486 0 0 1 2.236 1.382l6 12a2.5 2.5 0 0 1-2.236 3.618Z"/><path fill="#ccc" d="M232.837 89h-33V71h33z"/><path fill="#fff" d="M230.837 89h-13V75h13zM214.837 89h-13V75h13z"/><path fill="#ccc" d="M216.338 108.5a19.022 19.022 0 0 1-19-19V89a4.505 4.505 0 0 1 4.5-4.5h29a4.505 4.505 0 0 1 4.5 4.5v.5a19.022 19.022 0 0 1-19 19Z"/><path fill="#5392f0" d="M231.602 75.5h-30.528a2.5 2.5 0 0 1-2.236-3.618l6-12a2.486 2.486 0 0 1 2.236-1.382h18.528a2.486 2.486 0 0 1 2.236 1.382l6 12a2.5 2.5 0 0 1-2.236 3.618Z"/><path fill="#ccc" d="M197.837 179h-33v-18h33z"/><path fill="#fff" d="M195.837 179h-13v-14h13zM179.837 179h-13v-14h13z"/><path fill="#ccc" d="M181.338 198.5a19.022 19.022 0 0 1-19-19v-.5a4.505 4.505 0 0 1 4.5-4.5h29a4.505 4.505 0 0 1 4.5 4.5v.5a19.022 19.022 0 0 1-19 19Z"/><path fill="#5392f0" d="M196.602 165.5h-30.528a2.5 2.5 0 0 1-2.236-3.618l6-12a2.486 2.486 0 0 1 2.236-1.382h18.528a2.486 2.486 0 0 1 2.236 1.382l6 12a2.5 2.5 0 0 1-2.236 3.618Z"/><path fill="#ccc" d="M234.837 263h-33v-18h33z"/><path fill="#fff" d="M232.837 263h-13v-14h13zM216.837 263h-13v-14h13z"/><path fill="#ccc" d="M218.338 282.5a19.022 19.022 0 0 1-19-19v-.5a4.505 4.505 0 0 1 4.5-4.5h29a4.505 4.505 0 0 1 4.5 4.5v.5a19.022 19.022 0 0 1-19 19Z"/><path fill="#5392f0" d="M233.602 249.5h-30.528a2.5 2.5 0 0 1-2.236-3.618l6-12a2.486 2.486 0 0 1 2.236-1.382h18.528a2.486 2.486 0 0 1 2.236 1.382l6 12a2.5 2.5 0 0 1-2.236 3.618Z"/><path fill="#ccc" d="M287.838 283h33v18h-33z"/><path fill="#fff" d="M289.838 287h13v14h-13zM305.838 287h13v14h-13z"/><path fill="#ccc" d="M289.838 297.5a3.504 3.504 0 0 0-3.5 3.5v.5a18 18 0 0 0 36 0v-.5a3.504 3.504 0 0 0-3.5-3.5Z"/><path fill="#5392f0" d="M295.074 271.5a1.492 1.492 0 0 0-1.342.83l-6 12a1.5 1.5 0 0 0 1.342 2.17h30.528a1.5 1.5 0 0 0 1.341-2.17l-6-12a1.492 1.492 0 0 0-1.341-.83Z"/><path fill="#3f3d56" d="M529.046 322a1 1 0 0 0 0-2h-9.5v-4h9.5a1 1 0 0 0 0-2h-81a1 1 0 1 0 0 2h9.5v4h-9.5a1 1 0 1 0 0 2h9.5v4h-9.5a1 1 0 1 0 0 2h9.5v4h-8.5a2 2 0 1 0 0 4h8.092a1.49 1.49 0 0 0-.092.5v14a1.5 1.5 0 0 0 3 0v-14a1.49 1.49 0 0 0-.091-.5h57.183a1.49 1.49 0 0 0-.092.5v14a1.5 1.5 0 0 0 3 0v-14a1.49 1.49 0 0 0-.091-.5h8.091a2 2 0 0 0 0-4h-8.5v-4h9.5a1 1 0 0 0 0-2h-9.5v-4Zm-69.5-6h58v4h-58Zm58 16h-58v-4h58Zm0-6h-58v-4h58ZM189.046 322a1 1 0 0 0 0-2h-9.5v-4h9.5a1 1 0 0 0 0-2h-81a1 1 0 0 0 0 2h9.5v4h-9.5a1 1 0 0 0 0 2h9.5v4h-9.5a1 1 0 0 0 0 2h9.5v4h-8.5a2 2 0 0 0 0 4h8.092a1.49 1.49 0 0 0-.092.5v14a1.5 1.5 0 0 0 3 0v-14a1.49 1.49 0 0 0-.091-.5h57.183a1.49 1.49 0 0 0-.092.5v14a1.5 1.5 0 0 0 3 0v-14a1.49 1.49 0 0 0-.091-.5h8.091a2 2 0 0 0 0-4h-8.5v-4h9.5a1 1 0 0 0 0-2h-9.5v-4Zm-69.5-6h58v4h-58Zm58 16h-58v-4h58Zm0-6h-58v-4h58Z"/><path fill="#ccc" d="M504.046 316.5h-3a1.502 1.502 0 0 1-1.5-1.5v-3a1.502 1.502 0 0 1 1.5-1.5h3a1.502 1.502 0 0 1 1.5 1.5v3a1.502 1.502 0 0 1-1.5 1.5Z"/><path fill="#ccc" d="M502.603 313.194a.966.966 0 0 1-.17-.014 1 1 0 0 1-.817-1.155l9.89-57.546a1 1 0 0 1 1.97.338l-9.889 57.547a1 1 0 0 1-.984.83Z"/><path fill="#ccc" d="M502.6 313.194a1 1 0 0 1-.984-.83l-9.89-57.547a1 1 0 0 1 1.972-.338l9.89 57.546a1 1 0 0 1-.817 1.155.968.968 0 0 1-.17.014Z"/><path fill="#ff6584" d="M523.892 244.628c.964-6.83-2.683-12.99-8.147-13.762s-10.674 4.14-11.638 10.97c-.813 5.759 1.66 11.03 5.731 13.007l-.232 1.641 4.947.699.231-1.642c4.459-.773 8.295-5.153 9.108-10.913Z"/><path fill="#ccc" d="M500.925 241.52c-1.183-6.794-6.55-11.535-11.985-10.588s-8.883 7.222-7.7 14.017c.999 5.73 4.974 9.985 9.455 10.614l.285 1.633 4.92-.857-.284-1.633c4.005-2.107 6.307-7.455 5.31-13.186ZM502.546 312a1 1 0 0 1-1-1v-59.158a1 1 0 1 1 2 0V311a1 1 0 0 1-1 1Z"/><path fill="#5392f0" d="M511.917 240.48c0-6.898-4.472-12.489-9.99-12.489s-9.99 5.591-9.99 12.488c0 5.817 3.185 10.69 7.492 12.079v1.658h4.995v-1.658c4.307-1.389 7.493-6.262 7.493-12.079Z"/><path fill="#ccc" d="M710.485 353.537H1.19a1.19 1.19 0 1 1 0-2.381h709.294a1.19 1.19 0 1 1 0 2.381Z"/><path fill="#a0616a" d="m553.475 351.407-2.275-.001-1.082-8.773h3.357v8.774z"/><path fill="#2f2e41" d="M549.251 350.757h4.711v2.762h-7.148v-.324a2.438 2.438 0 0 1 2.437-2.438Z"/><path fill="#a0616a" d="m569.978 348.83-2.069.945-4.629-7.53 3.053-1.395 3.645 7.98z"/><path fill="#2f2e41" d="m565.867 349.994 4.285-1.958 1.147 2.513-6.502 2.97-.135-.295a2.438 2.438 0 0 1 1.205-3.23ZM553.33 349.093h-2.173a.838.838 0 0 1-.833-.774l-1.185-31.643a.835.835 0 0 1 .914-.892l12.567 1.335a.835.835 0 0 1 .753.815l.264 13.958a.648.648 0 0 0 .043.222l5.155 13.367a.835.835 0 0 1-.49 1.084l-2.202.811a.835.835 0 0 1-1.031-.401l-6.333-12.313a.83.83 0 0 1-.075-.212l-1.082-5.213a.65.65 0 0 0-1.28.058l-2.183 19.058a.835.835 0 0 1-.83.74Z"/><circle cx="554.412" cy="287.377" r="4.557" fill="#a0616a"/><path fill="#5392f0" d="M557.553 319.563a16.478 16.478 0 0 1-8.33-2.38.83.83 0 0 1-.392-.768l1.108-15.839a6.867 6.867 0 0 1 3.132-5.316 6.61 6.61 0 0 1 5.899-.703 4.655 4.655 0 0 1 1.2.622 7.921 7.921 0 0 1 3.246 7.553c-.813 6.163.107 14.477.215 15.404l.008.067-.061.028a14.293 14.293 0 0 1-6.025 1.332Z"/><path fill="#a0616a" d="M563.354 321.826a1.866 1.866 0 0 0 .15-2.857l2.673-6.067-3.397.576-2.018 5.673a1.876 1.876 0 0 0 2.592 2.675Z"/><path fill="#5392f0" d="M563.61 318.078a.832.832 0 0 1-.614-.27l-.997-1.088a.84.84 0 0 1-.185-.8l2.283-7.728-3.474-7.294a1.546 1.546 0 0 1-.105-1.029 1.542 1.542 0 0 1 2.854-.364l4.696 7.619a2.124 2.124 0 0 1 .128 1.99l-3.824 8.473a.833.833 0 0 1-.629.48.847.847 0 0 1-.133.011Z"/><path fill="#2f2e41" d="M558.166 291.395c-.472.08-.861-.577-.92-1.04a8.139 8.139 0 0 1 .128-1.365 1.12 1.12 0 0 0-.676-1.154c-.5-.143-.964.258-1.476.21-.714-.067-1.073-.903-1.16-1.579s-.154-1.476-.772-1.861c-.616-.384-1.379-.105-2.087-.093a2.85 2.85 0 0 1-2.695-2.019.679.679 0 0 0 .775-.31.687.687 0 0 0-.207-.812l1.357.664a.729.729 0 0 1 .48-.95 2.563 2.563 0 0 1 1.259-.013c2.124.33 4.585.168 5.994 1.787a7.507 7.507 0 0 1 1.67 4.638 12.874 12.874 0 0 1-1.67 3.897Z"/><path fill="#a0616a" d="M534.004 299.163a1.866 1.866 0 0 1 2.682.996l6.63-.047-1.877 2.89-6.008-.398a1.876 1.876 0 0 1-1.427-3.441Z"/><path fill="#5392f0" d="M537.454 302.312a.832.832 0 0 1 .14-.657l.861-1.197a.839.839 0 0 1 .746-.345l7.755-.325 6.708-3.903a1.546 1.546 0 0 1 .986-.313 1.542 1.542 0 0 1 .939 2.72l-6.502 6.15a2.124 2.124 0 0 1-1.923.532l-9.073-2.016a.833.833 0 0 1-.6-.518.849.849 0 0 1-.037-.128Z"/><path fill="#ffb8b8" d="M423.453 347.67a1.92 1.92 0 0 0-1.496-2.537l-1.152-6.728-2.589 2.424 1.49 6.018a1.931 1.931 0 0 0 3.747.823Z"/><path fill="#5392f0" d="m421.733 344.451-2.543.667a.48.48 0 0 1-.58-.332l-4.569-16.185-1.38-4.129a2.487 2.487 0 0 1 2.657-3.257 2.485 2.485 0 0 1 2.087 1.763l3.65 12.339 1.03 8.616a.48.48 0 0 1-.25.479.47.47 0 0 1-.102.04Z"/><circle cx="412.442" cy="313.793" r="4.692" fill="#ffb8b8"/><path fill="#ffb8b8" d="m398.628 377.976-2.245-.668 1.508-8.976 3.313.986-2.576 8.658z"/><path fill="#2f2e41" d="m398.553 380.322-7.237-2.154.027-.091a2.94 2.94 0 0 1 3.655-1.98l4.42 1.316Z"/><path fill="#ffb8b8" d="m423.22 377.861-2.342-.001-1.114-9.033 2.31.001 1.146 9.033z"/><path fill="#2f2e41" d="M423.817 380.13h-7.551v-.095a2.94 2.94 0 0 1 2.939-2.94h4.612ZM399.492 375.32h-2.352a.86.86 0 0 1-.845-1.015c-1.5-.667 6.574-39.386 8.481-38.635l.063-.09 9.606.783c4.303 8.611 7.026 22.86 9.575 37.735a.86.86 0 0 1-.792 1.07l-2.642.128a.856.856 0 0 1-.84-.539l-10.122-25.304a.274.274 0 0 0-.272-.18.28.28 0 0 0-.264.192l-8.784 25.278a.86.86 0 0 1-.812.577Z"/><path fill="#5392f0" d="m414.646 337.12-.073-.005-10.227-.772 1.794-11.41a5.974 5.974 0 0 1 5.104-5.007l.237-.032a5.903 5.903 0 0 1 5.365 2.147 5.977 5.977 0 0 1 1.023 5.763Z"/><path fill="#2f2e41" d="M421.552 319.16c-3.226 1.475-7.603 1.211-12.607 0 .692-1.897 1.232-3.73.62-5.074a4.096 4.096 0 0 1-.134-3.279 6.306 6.306 0 0 1 5.818-3.873 6.304 6.304 0 0 1 6.303 6.304Z"/><path fill="#2f2e41" d="M411.204 307.363h3.472v4.933h-8.405a4.933 4.933 0 0 1 4.933-4.933Z"/><path fill="#ffb8b8" d="M404.124 348.731a1.92 1.92 0 0 0-.132-2.942l2.136-6.483-3.424.928-1.503 6.014a1.931 1.931 0 0 0 2.923 2.484Z"/><path fill="#5392f0" d="m404.113 345.082-2.558-.602a.48.48 0 0 1-.358-.566l3.55-16.439.716-4.294a2.487 2.487 0 0 1 3.873-1.633 2.485 2.485 0 0 1 1.017 2.536l-2.558 12.61-3.127 8.095a.48.48 0 0 1-.446.305.47.47 0 0 1-.109-.012Z"/><path fill="#ffb8b8" d="M483.179 309.354a1.941 1.941 0 0 0-.29.099l-7.686-4.959.106-2.22-3.329-.597-.57 3.91a1.476 1.476 0 0 0 .848 1.556l9.467 4.321a1.936 1.936 0 1 0 1.454-2.11Z"/><path fill="#3f3d56" d="m474.89 304.358-4.123-.761a.83.83 0 0 1-.634-1.085l1.353-3.954a2.305 2.305 0 0 1 4.53.85l-.146 4.163a.83.83 0 0 1-.98.786Z"/><path fill="#ffb8b8" d="M489.224 293.632a1.941 1.941 0 0 0-.044.303l-7.923 4.57-1.926-1.108-2.053 2.688 3.218 2.294a1.476 1.476 0 0 0 1.77-.043l8.17-6.446a1.936 1.936 0 1 0-1.212-2.257Z"/><path fill="#ccc" d="m480.992 298.722-2.561 3.319a.83.83 0 0 1-1.255.069l-2.899-3.01a2.305 2.305 0 0 1 2.827-3.642l3.636 2.033a.83.83 0 0 1 .252 1.231Z"/><circle cx="470.505" cy="286.268" r="4.53" fill="#ffb8b8"/><path fill="#ffb8b8" d="M474.782 351.13h2.261l1.075-8.722h-3.337l.001 8.722z"/><path fill="#2f2e41" d="M474.205 350.392h4.453a2.838 2.838 0 0 1 2.838 2.837v.092h-7.291Z"/><path fill="#ffb8b8" d="M467.035 351.13h2.261l1.076-8.722h-3.337v8.722z"/><path fill="#2f2e41" d="M466.458 350.392h4.453a2.838 2.838 0 0 1 2.838 2.837v.092h-7.29ZM474.103 347.82l-2.306-17.845a.09.09 0 0 0-.094-.087.088.088 0 0 0-.09.09l-.663 17.585a.827.827 0 0 1-.83.8h-2.739a.825.825 0 0 1-.83-.81l-.71-29.302 12.257.123.306 29.395a.83.83 0 0 1-.291.612.819.819 0 0 1-.638.192l-2.656.007a.83.83 0 0 1-.716-.76Z"/><path fill="#ccc" d="M465.659 319.053a.83.83 0 0 1-.524-.652l-.122-16.103c-.542-3.585-1.183-7.099 1.952-8.915l.277-.829a.463.463 0 0 1 .424-.315l5.947-.17a.457.457 0 0 1 .437.28l.442 1.031.157.09a8.745 8.745 0 0 1 4.352 8.633l-.34 2.871-.241 13.416a.837.837 0 0 1-.436.717 11.284 11.284 0 0 1-5.452 1.27 20.427 20.427 0 0 1-6.873-1.324Z"/><path fill="#2f2e41" d="M470.358 290.966a4.833 4.833 0 1 1 .906-9.559 5.556 5.556 0 0 1 3.315-.908 3.25 3.25 0 0 1 2.743 1.874 2.32 2.32 0 0 1-1.112 2.947 4.192 4.192 0 0 1-2.212.031 3.298 3.298 0 0 0-2.187.194c-.642.38-.931 1.402-.356 1.879a1.98 1.98 0 0 1 .57 2.18 2.167 2.167 0 0 1-1.667 1.362Z"/><path fill="#ffb8b8" d="M207.665 377.775h2.204l1.048-8.5h-3.253l.001 8.5z"/><path fill="#2f2e41" d="M206.693 380.322v-3.676h4.75a3.18 3.18 0 0 1 3.176 3.175v.5Z"/><path fill="#ffb8b8" d="M195.787 377.775h2.203l1.048-8.5h-3.252l.001 8.5z"/><path fill="#2f2e41" d="M194.815 380.322v-3.676h4.75a3.18 3.18 0 0 1 3.175 3.175v.5Z"/><circle cx="202.241" cy="312.615" r="4.734" fill="#ffb8b8"/><path fill="#ffb8b8" d="M218.43 343.491a1.808 1.808 0 0 0-2.332-1.5l-2.646-3.171-2.32 1.138 3.8 4.426a1.817 1.817 0 0 0 3.497-.893ZM195.658 346.699a1.808 1.808 0 0 0-1.163-2.516l-.531-4.096-2.568-.285.831 5.775a1.817 1.817 0 0 0 3.43 1.122Z"/><path fill="#ccc" d="M198.284 321.557a2.33 2.33 0 0 0-4 .565l-3.88 9.684a6.016 6.016 0 0 0-.367 3.122l1.264 8.512a.771.771 0 0 0 .99.624l1.664-.512a.771.771 0 0 0 .54-.826 28.01 28.01 0 0 1 2.248-14.695l1.83-4.092a2.33 2.33 0 0 0-.29-2.382Z"/><path fill="#2f2e41" d="M201.088 317.35a5.051 5.051 0 1 1 .946-9.99 5.806 5.806 0 0 1 3.465-.95 3.396 3.396 0 0 1 2.867 1.959 2.425 2.425 0 0 1-1.162 3.08 4.381 4.381 0 0 1-2.312.032 3.447 3.447 0 0 0-2.285.202c-.672.399-.974 1.466-.372 1.964a2.07 2.07 0 0 1 .594 2.279 2.264 2.264 0 0 1-1.741 1.423ZM195.214 343.304l-.84 31.871a.771.771 0 0 0 .81.79l2.767-.14a.771.771 0 0 0 .722-.65l3.29-20.7a.386.386 0 0 1 .757-.024l4.455 19.931a.771.771 0 0 0 1.01.558l2.746-.167a.771.771 0 0 0 .51-.782l-2.396-30.989Z"/><path fill="#ccc" d="M193.866 328.166a8.688 8.688 0 0 1 7.928-9.542c2.085-.148 5.322-.2 6.39 2.533 3.214 8.233-2.414 8.033-.475 15.167s3.652 7.542.991 8.057-14.624 3.556-14.133-1.465c.302-3.086-.239-9.932-.701-14.75Z"/><path fill="#ccc" d="M207.614 320.319a2.33 2.33 0 0 0-3.14 2.54l1.51 9.444a9.229 9.229 0 0 0 1.98 4.396l4.907 5.98a.771.771 0 0 0 1.169.027l1.165-1.294a.771.771 0 0 0 .038-.987l-.343-.445a25.966 25.966 0 0 1-5.213-12.757l-.601-5.01a2.33 2.33 0 0 0-1.472-1.894Z"/><path fill="#a0616a" d="M218.655 345.686a1.857 1.857 0 0 0 .664-2.769l1.388-13.574h-3l-1.104 13.254a1.867 1.867 0 0 0 2.052 3.089Z"/><circle cx="221.41" cy="317.607" r="4.245" fill="#a0616a"/><path fill="#5392f0" d="M222.209 337.248a.776.776 0 0 1-.748-.57 42.927 42.927 0 0 0-2.63-6.21 5.144 5.144 0 0 1 2.92-7.101 5.141 5.141 0 0 1 6.608 3.275 25.443 25.443 0 0 1 .963 8.485.78.78 0 0 1-.611.72l-6.335 1.383a.774.774 0 0 1-.167.018Z"/><path fill="#a0616a" d="M228.344 377.557h2.119l1.008-8.173h-3.128l.001 8.173z"/><path fill="#2f2e41" d="M235.05 380.024h-7.66v-3.572h4.587a3.072 3.072 0 0 1 3.072 3.072Z"/><path fill="#a0616a" d="m207.156 374.811 1.857 1.021 4.821-6.676-2.74-1.507-3.938 7.162z"/><path fill="#2f2e41" d="m211.844 380.204-6.712-3.69 1.721-3.132 4.019 2.21a3.073 3.073 0 0 1 1.212 4.173ZM228.245 373.02a.778.778 0 0 1-.77-.677l-2.65-20.42a.432.432 0 0 0-.807-.153l-11.044 20.037a.782.782 0 0 1-.958.351l-2.407-.917a.778.778 0 0 1-.444-1.02l7.65-18.793a.6.6 0 0 0 .04-.149c1.036-8.02 3.672-12.098 4.456-13.157a.602.602 0 0 0 .085-.548l-.107-.323a.777.777 0 0 1 .15-.757c2.822-3.215 7.741-1.46 7.79-1.442l.025.009.016.02c5.516 7.566 3.476 32.138 3.012 36.986a.776.776 0 0 1-.715.7l-3.262.251a.834.834 0 0 1-.06.003Z"/><path fill="#a0616a" d="M237.912 322.538a1.818 1.818 0 0 0-.041.283l-7.425 4.283-1.804-1.039-1.924 2.519 3.016 2.15a1.383 1.383 0 0 0 1.659-.04l7.656-6.04a1.814 1.814 0 1 0-1.137-2.116Z"/><path fill="#5392f0" d="m230.198 327.307-2.4 3.11a.778.778 0 0 1-1.175.065l-2.717-2.821a2.16 2.16 0 0 1 2.65-3.413l3.406 1.905a.778.778 0 0 1 .236 1.154ZM220.898 332.71l-3.865-.698a.778.778 0 0 1-.599-1.014l1.253-3.71a2.16 2.16 0 0 1 4.249.78l-.122 3.901a.778.778 0 0 1-.916.741Z"/><path fill="#2f2e41" d="M222.082 316.63c1.09.747 2.523 1.515 3.637.72a2.028 2.028 0 0 0 .666-2.338c-.534-1.526-2-2.197-3.401-2.712a9.768 9.768 0 0 0-5.688-.723c-1.882.48-3.544 2.301-3.205 4.213.273 1.537 1.723 2.816 1.517 4.363-.207 1.558-1.958 2.378-3.505 2.656s-3.277.368-4.388 1.479c-1.418 1.417-1.064 3.95.27 5.446a9.938 9.938 0 0 0 5.298 2.635c2.585.61 5.38.932 7.835-.082s4.365-3.743 3.654-6.301a8.791 8.791 0 0 0-1.692-2.884 8.036 8.036 0 0 1-1.637-2.91 3.025 3.025 0 0 1 .546-2.647.767.767 0 0 0 .103-.896Z"/></svg>