<svg xmlns="http://www.w3.org/2000/svg" width="500" height="380" data-name="Layer 1" viewBox="0 0 776.363 516.128"><path fill="#f2f2f2" d="M157.787 467.481a354.613 354.613 0 0 1-3.343 45.566c-.073.53-.153 1.06-.227 1.59l-142.766-.797c-.419-.527-.831-1.06-1.231-1.599a67.873 67.873 0 0 1-3.729-5.52c-5.512-9.149-8.035-19.86-5.507-27.25l.046-.116a12.968 12.968 0 0 1 2.53-4.398c5.766-6.49 17.423-5.408 28.002-.17-9.488-10.385-17.044-23.49-17.618-35.19-.562-11.41 5.404-19.56 11.875-26.488.213-.229.425-.452.637-.674.103-.115.213-.223.315-.337 5.05-5.28 10.936-10.483 19.456-9.854 9.344.692 19.704 8.519 26.968 17.639 7.264 9.114 12.091 19.468 16.984 29.572 4.899 10.099 10.2 20.455 18.06 29.086-10.647-13.468-19.232-28.792-22.403-43.695s-.38-29.218 9.11-36.237a22.196 22.196 0 0 1 9.721-3.922c.41-.068.826-.124 1.248-.173 8.785-1 19.274 2.04 28.198 9.302 9.828 7.996 16.642 19.85 20.032 31.105 3.39 11.253 3.751 22.087 3.642 32.56Z"/><path fill="#fff" d="m64.381 514.136-2.73-.015q-1.3-.813-2.613-1.607c-.541-.342-1.09-.671-1.637-1.007q-13.583-8.296-27.336-15.914-13.74-7.626-27.619-14.548a1.144 1.144 0 0 1-.658-1.308.33.33 0 0 1 .046-.096c.129-.242.417-.343.838-.136 1.135.57 2.277 1.138 3.411 1.72Q20 488.266 33.797 496.01q13.787 7.74 27.417 16.164c.191.117.383.24.574.355l2.593 1.607ZM99.58 514.332l-1.688-.009c-.38-.533-.755-1.066-1.135-1.598q-13.419-18.817-26.831-37.633-21.965-30.806-43.917-61.611a1.087 1.087 0 0 1-.19-.372c-.125-.455.21-.721.637-.674a1.282 1.282 0 0 1 .892.567l24.623 34.539 43.695 61.296 2.779 3.897c.38.533.761 1.066 1.135 1.598ZM137.189 504.53a144.727 144.727 0 0 1-.52 8.418l-.144 1.59-1.771-.009c.054-.53.108-1.06.156-1.591.374-4.007.64-8.06.676-12.222a170.503 170.503 0 0 0-3.357-34.369 213.989 213.989 0 0 0-10.396-35.706 245.211 245.211 0 0 0-17.01-35.327.944.944 0 0 1-.156-.628c.074-.504.746-.654 1.248-.172a1.466 1.466 0 0 1 .254.322q1.226 2.107 2.406 4.227a245.04 245.04 0 0 1 16.28 35.45 212.977 212.977 0 0 1 9.692 35.76 168.212 168.212 0 0 1 2.642 34.256Z"/><path fill="#3f3d56" d="M537.363 286h-167a14.696 14.696 0 0 1-9.607-3.205 1 1 0 0 1 1.214-1.59 12.677 12.677 0 0 0 8.393 2.795h167a15.017 15.017 0 0 0 15-15V167a15.017 15.017 0 0 0-15-15h-167a15.017 15.017 0 0 0-15 15v60a1 1 0 0 1-2 0v-60a17.02 17.02 0 0 1 17-17h167a17.02 17.02 0 0 1 17 17v102a17.02 17.02 0 0 1-17 17Z"/><path fill="#3f3d56" d="M759.363 344h-442a1 1 0 0 1 0-2h442a15.017 15.017 0 0 0 15-15V17a15.017 15.017 0 0 0-15-15h-470a15.017 15.017 0 0 0-15 15v202a1 1 0 0 1-2 0V17a17.02 17.02 0 0 1 17-17h470a17.02 17.02 0 0 1 17 17v310a17.02 17.02 0 0 1-17 17Z"/><path fill="#3f3d56" d="M273.036 32.575h503v2h-503z"/><circle cx="292.036" cy="19.535" r="6" fill="#3f3d56"/><circle cx="309.286" cy="19.535" r="6" fill="#3f3d56"/><circle cx="326.536" cy="19.535" r="6" fill="#3f3d56"/><path fill="#3f3d56" d="M677.863 101h-310a15.5 15.5 0 0 1 0-31h310a15.5 15.5 0 0 1 0 31Zm-310-29a13.5 13.5 0 0 0 0 27h310a13.5 13.5 0 0 0 0-27Z"/><path fill="#5392f0" d="M675.863 180h-60a15.5 15.5 0 0 1 0-31h60a15.5 15.5 0 0 1 0 31ZM675.863 232h-60a15.5 15.5 0 0 1 0-31h60a15.5 15.5 0 0 1 0 31ZM675.863 284h-60a15.5 15.5 0 0 1 0-31h60a15.5 15.5 0 0 1 0 31Z"/><path fill="#a0616a" d="M249.363 293.58a11.153 11.153 0 0 0-2.3-.24 11.04 11.04 0 0 0-4.23.84 10.02 10.02 0 0 0-1.31.66l-44.74-20.08-1.26-12.14-19.29-.51.13 20.2a10.876 10.876 0 0 0 7.86 10.34l52.32 14.89c.12.38.23.71.36 1.02a10.988 10.988 0 0 0 6.54 6.16 10.864 10.864 0 0 0 3.63.62 10.432 10.432 0 0 0 2.29-.25 9.609 9.609 0 0 0 1.27-.36v-20.8a11.357 11.357 0 0 0-1.27-.35ZM127.046 504.226h12.26l5.832-47.288h-18.094l.002 47.288z"/><path fill="#2f2e41" d="m162.95 515.609-38.53.001-.001-14.886 23.644-.002a14.887 14.887 0 0 1 14.887 14.887Z"/><path fill="#a0616a" d="m63.321 491.01 11.27 4.827 23.981-41.171-16.632-7.125-18.619 43.469z"/><path fill="#2f2e41" d="m91.843 515.61-35.419-15.17 5.862-13.684 21.734 9.309a14.887 14.887 0 0 1 7.823 19.545Z"/><circle cx="157.358" cy="173.431" r="24.561" fill="#a0616a"/><path fill="#2f2e41" d="m139.614 492.665-13.496-2.572a4.474 4.474 0 0 1-3.635-4.878l8.95-87.26a3.5 3.5 0 0 0-6.7-1.735l-39.07 91.167a4.5 4.5 0 0 1-5.964 2.34l-10.977-4.88a4.482 4.482 0 0 1-2.442-5.535l26.722-80.167a3.5 3.5 0 0 0 .156-.694l8.674-73.247a4.5 4.5 0 0 1 2.775-3.64l27.388-11.127a4.5 4.5 0 0 1 4.833.945l34.57 33.66a4.482 4.482 0 0 1 1.275 4.101L144.87 489.121a4.517 4.517 0 0 1-4.417 3.623 4.47 4.47 0 0 1-.84-.08Z"/><path fill="#ccc" d="M124.228 329.243c-4.785-5.54-8.277-8.055-10.665-7.658-2.37.382-3.737 3.693-5.184 7.198-1.976 4.784-4.215 10.207-9.735 10.63a4.647 4.647 0 0 1-4.562-1.87c-4.341-6.456 6.072-27.824 7.024-29.744l-.489-101.06a4.49 4.49 0 0 1 2.353-3.985c28.617-15.432 67.257 11.406 74.712 16.944a4.488 4.488 0 0 1 1.811 3.849c-.9 16.925-5.387 102.32-5.387 121.369 0 5.273-1.819 8.624-5.406 9.958a10.781 10.781 0 0 1-3.775.619c-10.945 0-28.873-12.559-40.697-26.25Z"/><path fill="#ccc" d="M164.164 280.17a4.45 4.45 0 0 1-2.023-3.566l-1.938-45.265a11.747 11.747 0 0 1 22.711-4.692l14.508 38.017a4.505 4.505 0 0 1-2.6 5.808l-26.58 10.144a4.455 4.455 0 0 1-4.078-.445Z"/><path fill="#a0616a" d="M96.616 350.899a10.743 10.743 0 0 1-1.726-16.382L90.2 229.612l23.202 2.732-2.694 102.382a10.8 10.8 0 0 1-14.092 16.173Z"/><path fill="#ccc" d="M80.505 257.547a4.45 4.45 0 0 1-.618-4.054l14.327-42.983a11.747 11.747 0 0 1 22.892 3.715v40.69a4.505 4.505 0 0 1-4.5 4.5h-28.45a4.453 4.453 0 0 1-3.65-1.868Z"/><path fill="#2f2e41" d="M141.497 189.951a4.853 4.853 0 0 1-6.351-.316c-5.264-4.92-9.706-10.804-11.955-17.618-2.576-7.808-1.918-16.953 3.016-23.53 4.17-5.56 10.772-8.702 17.274-11.157a28.271 28.271 0 0 1 7.96-2.068 10.937 10.937 0 0 1 7.754 2.178 6.868 6.868 0 0 1 2.276 7.397 25.847 25.847 0 0 1 11.801-6.105 14.267 14.267 0 0 1 8.44.35c3.771 1.55 6.22 5.338 7.35 9.256a16.724 16.724 0 0 1 .218 9.21 11.146 11.146 0 0 1-5.706 7.032c-3.45 1.625-7.544 1.011-11.152-.226s-7.027-3.063-10.758-3.853-8.04-.328-10.68 2.424c-1.859 1.938-2.59 4.664-3.256 7.266l-3.459 13.534a16.88 16.88 0 0 1-2.156 5.574 3.333 3.333 0 0 1-.616.652Z"/><path fill="#ccc" d="M309.153 273.43v46.16l.63.46V273.5a4.502 4.502 0 0 0-.63-.07Zm66.97-30.2-31.92-23.17a10.841 10.841 0 0 0-15.11 2.4l-18.67 25.74-1.27 1.74v99.25a9.551 9.551 0 0 1-9.54 9.54h-5.3l3.07.62a10.39 10.39 0 0 0 2.15.22 10.836 10.836 0 0 0 8.76-4.46l1.3-1.8 68.93-94.98a10.837 10.837 0 0 0-2.4-15.1Zm1.37 14.35-67.11 92.47-.71.98-.07.1a10.325 10.325 0 0 0 .18-1.94v-97.95l.64-.88 19.71-27.15a9.557 9.557 0 0 1 13.32-2.12l31.92 23.17a9.552 9.552 0 0 1 2.12 13.32Z"/><path fill="#ccc" d="M343.552 281.879a8.436 8.436 0 0 1-4.975-1.623L320.64 267.24a8.51 8.51 0 0 1-1.887-11.872l13.017-17.938a8.5 8.5 0 0 1 11.871-1.887l17.938 13.017a8.51 8.51 0 0 1 1.887 11.871L350.45 278.37a8.444 8.444 0 0 1-5.545 3.402 8.617 8.617 0 0 1-1.352.108Z"/><path fill="#e6e6e6" d="M315.065 323.187a5.544 5.544 0 0 1-3.268-1.066l-3.145-2.28v-46.944l.53.032a5.726 5.726 0 0 1 1.394.258 5.46 5.46 0 0 1 1.574.797l22.648 16.441a5.585 5.585 0 0 1 1.237 7.803l-16.435 22.65a5.54 5.54 0 0 1-3.64 2.237 5.664 5.664 0 0 1-.895.072Z" opacity=".5"/><path fill="#3f3d56" d="M299.613 218.8h-39.44a10.823 10.823 0 0 0-10.81 10.81v119.58a10.823 10.823 0 0 0 10.81 10.81h39.44a10.811 10.811 0 0 0 9.98-6.69 10.477 10.477 0 0 0 .6-1.9 10.337 10.337 0 0 0 .19-1.36 8.18 8.18 0 0 0 .04-.86V229.61a10.823 10.823 0 0 0-10.81-10.81Zm9.54 130.39a9.551 9.551 0 0 1-9.54 9.54h-39.44a9.551 9.551 0 0 1-9.54-9.54V229.61a9.551 9.551 0 0 1 9.54-9.54h39.44a9.551 9.551 0 0 1 9.54 9.54Z"/><path fill="#5392f0" d="M290.975 270.817h-22.163a8.51 8.51 0 0 1-8.5-8.5v-22.163a8.51 8.51 0 0 1 8.5-8.5h22.163a8.51 8.51 0 0 1 8.5 8.5v22.163a8.51 8.51 0 0 1-8.5 8.5Z"/><path fill="#5392f0" d="M290.975 320.43h-22.163a8.51 8.51 0 0 1-8.5-8.5v-22.164a8.51 8.51 0 0 1 8.5-8.5h22.163a8.51 8.51 0 0 1 8.5 8.5v22.163a8.51 8.51 0 0 1-8.5 8.5Z" opacity=".5"/><path fill="#3f3d56" d="M279.894 331.38a8.27 8.27 0 1 0 8.27 8.27 8.28 8.28 0 0 0-8.27-8.27Zm0 15.26a6.995 6.995 0 1 1 7-6.99 7.005 7.005 0 0 1-7 6.99ZM258.384 516.128H9.09a1.19 1.19 0 0 1 0-2.382h249.294a1.19 1.19 0 0 1 0 2.382Z"/></svg>