<svg xmlns="http://www.w3.org/2000/svg" data-name="Layer 1" width="500" height="380" viewBox="0 0 871 477" xmlns:xlink="http://www.w3.org/1999/xlink"><path d="M323.08478,684.81991A141.78086,141.78086,0,0,1,217.032,545.426c.12189-7.912.95378-15.99006,4.27976-23.17011s9.50394-13.39013,17.23186-15.09142c8.43389-1.8567,17.33349,1.93875,23.61873,7.861s10.40636,13.736,14.198,21.49495c22.83782,46.734,40.18948,96.87978,46.6859,148.48823Z" transform="translate(-164.5 -211.5)" fill="#f2f2f2"/><path d="M234.71742,508.72373l16.00606,36.36706,16.00605,36.36707c5.06915,11.51753,10.12863,23.04011,15.36814,34.48151,5.1935,11.34091,10.565,22.6034,16.29525,33.684,5.72218,11.06486,11.80377,21.94913,18.40506,32.51522q1.23309,1.9737,2.49042,3.93207c.58008.90424,2.03014.06546,1.44594-.84519-6.72792-10.48764-12.92722-21.30541-18.7416-32.32388-5.82065-11.03036-11.2609-22.25748-16.5002-33.57426-5.26729-11.37724-10.332-22.84667-15.38325-34.321q-7.97541-18.11688-15.948-36.235l-16.00606-36.36706-1.99186-4.52568c-.43316-.98418-1.87645-.13294-1.44595.84519Z" transform="translate(-164.5 -211.5)" fill="#fff"/><path d="M316.40783,685.0727A82.96675,82.96675,0,0,1,223.71588,641.332c-2.07267-4.1407-3.82153-8.55925-4.03308-13.1849s1.31945-9.51764,4.87237-12.48717c3.87749-3.2408,9.52264-3.67283,14.38463-2.29486s9.111,4.32217,13.17418,7.32689c24.47345,18.09816,47.01961,39.44868,64.3248,64.48912Z" transform="translate(-164.5 -211.5)" fill="#f2f2f2"/><path d="M222.98961,617.50243l18.12782,14.56013,18.12782,14.56012c5.74112,4.61123,11.47858,9.22769,17.2876,13.75339,5.758,4.486,11.58721,8.88317,17.55363,13.089,5.95795,4.19992,12.05376,8.209,18.33348,11.91267q1.173.69183,2.3545,1.36915c.54528.31286,1.07169-.51408.52254-.82916-6.32429-3.62872-12.46326-7.57154-18.45656-11.72248-5.99977-4.15542-11.85515-8.51568-17.63042-12.97675-5.80612-4.4849-11.53195-9.07234-17.25211-13.666q-9.03159-7.2529-18.062-14.50723L225.76806,618.4852l-2.25591-1.81193c-.49058-.394-1.01011.43755-.52254.82916Z" transform="translate(-164.5 -211.5)" fill="#fff"/><path d="M884.78137,683.90917A197.71913,197.71913,0,0,0,1032.6762,489.51879c-.17-11.03365-1.33009-22.29878-5.9683-32.31163s-13.25362-18.67308-24.03052-21.04559c-11.7614-2.58925-24.17224,2.70365-32.93726,10.96252s-14.51208,19.1554-19.79965,29.97557c-31.84825,65.17248-56.04583,135.10273-65.10535,207.07277Z" transform="translate(-164.5 -211.5)" fill="#f2f2f2"/><path d="M1008.01317,438.336l-22.32108,50.71532L963.371,539.76666c-7.06914,16.06165-14.12478,32.13035-21.43149,48.08584-7.24254,15.81536-14.73324,31.52135-22.72438,46.97365-7.9798,15.43039-16.46082,30.60893-25.66658,45.34377q-1.7196,2.75239-3.473,5.48342c-.80894,1.261-2.83111.09129-2.01642-1.17865,9.38236-14.62542,18.02753-29.71125,26.13591-45.07694,8.11713-15.38228,15.70377-31.03894,23.01018-46.82064,7.34545-15.866,14.40842-31.8606,21.45257-47.862q11.122-25.26471,22.24012-50.53117L1003.219,443.4686l2.77774-6.31124c.60406-1.37248,2.61678-.18539,2.01643,1.17865Z" transform="translate(-164.5 -211.5)" fill="#fff"/><path d="M894.09264,684.26169a115.70046,115.70046,0,0,0,129.26262-60.99811c2.89042-5.77437,5.32927-11.93622,5.62429-18.38687s-1.84-13.27273-6.79471-17.41385c-5.40732-4.51943-13.2797-5.12191-20.05994-3.20027S989.41923,590.29,983.753,594.48023c-34.1292,25.2386-65.57072,55.01276-89.7035,89.93265Z" transform="translate(-164.5 -211.5)" fill="#f2f2f2"/><path d="M1024.36807,590.03226l-25.28,20.30467-25.28,20.30468c-8.00622,6.43054-16.00733,12.86837-24.10824,19.17965-8.02976,6.25585-16.15884,12.38793-24.47924,18.25319-8.30861,5.857-16.80945,11.44783-25.56678,16.61269q-1.63582.96479-3.28344,1.90933c-.76041.4363-1.49451-.7169-.7287-1.1563,8.81948-5.06038,17.38052-10.55881,25.73841-16.34746,8.36692-5.7949,16.53249-11.87546,24.58632-18.09659,8.09686-6.25438,16.08177-12.65175,24.05876-19.05776q12.5949-10.11447,25.18823-20.23092l25.28-20.30468,3.14595-2.5268c.68414-.54949,1.40864.61018.72871,1.1563Z" transform="translate(-164.5 -211.5)" fill="#fff"/><path d="M380.43307,358.37v.01l-8.33984,6.97-57.3501,12.74A14.49734,14.49734,0,1,0,325.61325,404.97l36.52978-6.15a44.82107,44.82107,0,0,0,5.98-1.42c.77-.23,1.53028-.49,2.28028-.76a233.31978,233.31978,0,0,1,13.61962-41.26Z" transform="translate(-164.5 -211.5)" fill="#2f2e41"/><path d="M856.77291,393.57l-7.9497-.05-4.25-.02-24.3501-42.57a11.93045,11.93045,0,0,0,.52979-1.37c2.71044-8.36-4.43995-14.11-11.25-13.99a9.83824,9.83824,0,0,0-2.29981.27A234.21618,234.21618,0,0,1,833.77291,414a13.58385,13.58385,0,0,0,2.11036.42,45.06536,45.06536,0,0,0,11.13964-.38c4.96-.63,9.6504-1.52,12.1504-1.33Z" transform="translate(-164.5 -211.5)" fill="#a0616a"/><path d="M882.98288,394.38l-29.21973-4.06a4.50493,4.50493,0,0,0-4.93994,3.2,4.58487,4.58487,0,0,0-.14014.63995l-2.33984,16.83a4.52717,4.52717,0,0,0,3.83008,5.08l29.21972,4.06a12.99951,12.99951,0,1,0,3.58985-25.75Z" transform="translate(-164.5 -211.5)" fill="#5392f0"/><path d="M835.88327,414.42a235.26241,235.26241,0,0,0-26.38037-78.85,238.28591,238.28591,0,0,0-429.06983,22.8v.01A234.62134,234.62134,0,0,0,368.123,397.4a239.91472,239.91472,0,0,0-5.68994,52.1,238,238,0,0,0,476,0A241.44779,241.44779,0,0,0,835.88327,414.42ZM600.43307,685.5c-130.12988,0-236-105.87-236-236a234.59283,234.59283,0,0,1,19.58984-94.12C420.44284,271.95,503.74313,213.5,600.43307,213.5c88.9502,0,166.56006,49.47,206.77,122.34A234.21618,234.21618,0,0,1,833.77291,414a237.51853,237.51853,0,0,1,2.66016,35.5C836.43307,579.63,730.563,685.5,600.43307,685.5Z" transform="translate(-164.5 -211.5)" fill="#3f3d56"/><path d="M523.18307,425.5a49.9919,49.9919,0,1,1,35.12256-14.40869A49.71768,49.71768,0,0,1,523.18307,425.5Zm0-98a48.00349,48.00349,0,1,0,48,48A48.05437,48.05437,0,0,0,523.18307,327.5Z" transform="translate(-164.5 -211.5)" fill="#3f3d56"/><path d="M677.18307,425.5a50,50,0,1,1,50-50A50.0565,50.0565,0,0,1,677.18307,425.5Zm0-98a48,48,0,1,0,48,48A48.05437,48.05437,0,0,0,677.18307,327.5Z" transform="translate(-164.5 -211.5)" fill="#3f3d56"/><path d="M557.603,410.38a49.01223,49.01223,0,0,1-68.83984,0,38.01338,38.01338,0,0,1,68.83984,0Z" transform="translate(-164.5 -211.5)" fill="#3f3d56"/><path d="M711.603,410.38a49.01223,49.01223,0,0,1-68.83984,0,38.01338,38.01338,0,0,1,68.83984,0Z" transform="translate(-164.5 -211.5)" fill="#3f3d56"/><path d="M568.18307,457.5c0-5.52285,17.90861-10,40-10s40,4.47715,40,10-17.90861,26-40,26S568.18307,463.02285,568.18307,457.5Z" transform="translate(-164.5 -211.5)" fill="#3f3d56"/><circle cx="310.18307" cy="227.5" r="17" fill="#ff6584"/><circle cx="561.68307" cy="228" r="17" fill="#ff6584"/><polygon points="197.859 463.363 210.119 463.362 215.951 416.074 197.857 416.075 197.859 463.363" fill="#ffb8b8"/><path d="M359.732,673.35923h38.53073a0,0,0,0,1,0,0V688.2461a0,0,0,0,1,0,0H374.61884A14.88686,14.88686,0,0,1,359.732,673.35924v0A0,0,0,0,1,359.732,673.35923Z" transform="translate(593.52576 1150.08803) rotate(179.99738)" fill="#2f2e41"/><polygon points="136.859 463.363 149.119 463.362 154.951 416.074 136.857 416.075 136.859 463.363" fill="#ffb8b8"/><path d="M298.732,673.35923h38.53073a0,0,0,0,1,0,0V688.2461a0,0,0,0,1,0,0H313.61884A14.88686,14.88686,0,0,1,298.732,673.35924v0A0,0,0,0,1,298.732,673.35923Z" transform="translate(471.52576 1150.09081) rotate(179.99738)" fill="#2f2e41"/><path d="M365.70994,482.13109l10.77686,85.38586q2.22234,17.60784,3.10973,35.34586L382.5,660.93134a4,4,0,0,1-3.995,4.19975H362.14861a4,4,0,0,1-3.9547-3.39974l-14.71009-96.91351a2,2,0,0,0-3.94338-.06694l-17.72157,94.91673a4,4,0,0,1-3.62624,3.18423l-15.054.95518a4,4,0,0,1-4.29-4.11428l4.8613-155.56167Z" transform="translate(-164.5 -211.5)" fill="#2f2e41"/><circle cx="153.46191" cy="124.44998" r="24.56103" fill="#ffb8b8"/><path d="M298.70994,506.13109c6,14,32,24,38,4,4.64014-15.46,23.02-21.96,31.12988-24.11a4.01608,4.01608,0,0,0,2.86036-4.86005l-22.67041-89.05a31.272,31.272,0,0,0-21.06006-22.16c-18.01953-5.58-37.01953,5.91-40.06983,24.52a137.15658,137.15658,0,0,0-1.58984,15.76C283.42967,449.5211,294.75975,496.91105,298.70994,506.13109Z" transform="translate(-164.5 -211.5)" fill="#5392f0"/><path d="M435.131,425.907a10.0558,10.0558,0,0,0-14.86428,4.09986l-35.57707-3.35428,8.72276,16.39351,32.44729.672A10.11027,10.11027,0,0,0,435.131,425.907Z" transform="translate(-164.5 -211.5)" fill="#ffb8b8"/><path d="M417.43882,444.13863a4.50494,4.50494,0,0,1-3.35167,1.493l-46.44007-1.06136a46.37348,46.37348,0,0,1-30.54652-11.5132L309.255,408.636a14.49652,14.49652,0,1,1,13.956-25.41307l46.11785,36.39125,44.90343,8.65347a4.51468,4.51468,0,0,1,3.41059,3.88645l.922,8.49143a4.50563,4.50563,0,0,1-.52015,2.63472A4.4552,4.4552,0,0,1,417.43882,444.13863Z" transform="translate(-164.5 -211.5)" fill="#2f2e41"/><path d="M299.31947,356.0392a4.00707,4.00707,0,0,0,5.90277-2.36827l.01372-.0559c.44576-1.86411.0756-3.81068-.05233-5.72308s.05926-4.01326,1.36175-5.41937c2.428-2.62114,6.74756-1.23165,10.25844-1.89439a8.6643,8.6643,0,0,0,6.74006-9.25292c-.05-.3975-.1284-.79545-.21633-1.19315a6.67289,6.67289,0,0,1,6.92676-8.0813c3.5481.20289,7.378,1.2779,10.31357-1.35011a7.60773,7.60773,0,0,0,1.82653-8.20133c-1.67623-4.83831-6.4137-7.37125-11.10185-8.76368a40.62031,40.62031,0,0,0-34.43036,5.64955c-2.96119,2.08724-5.72662,4.70983-6.98873,8.10575s-.65322,7.6803,2.19277,9.92206a18.332,18.332,0,0,0-4.24618,17.80644C289.22575,349.749,295.9345,354.09152,299.31947,356.0392Z" transform="translate(-164.5 -211.5)" fill="#2f2e41"/><polygon points="664.132 463.174 651.873 463.174 646.04 415.886 664.135 415.887 664.132 463.174" fill="#a0616a"/><path d="M643.11551,461.67067h23.64388a0,0,0,0,1,0,0v14.88687a0,0,0,0,1,0,0H628.22866a0,0,0,0,1,0,0v0A14.88685,14.88685,0,0,1,643.11551,461.67067Z" fill="#2f2e41"/><polygon points="751.132 463.174 738.873 463.174 733.04 415.886 751.135 415.887 751.132 463.174" fill="#a0616a"/><path d="M730.11552,461.67067h23.64387a0,0,0,0,1,0,0v14.88687a0,0,0,0,1,0,0H715.22866a0,0,0,0,1,0,0v0A14.88686,14.88686,0,0,1,730.11552,461.67067Z" fill="#2f2e41"/><path d="M828.83905,645.38645c-.13281,0-.26636-.00586-.40064-.0166l-17.3518-1.38867a4.99972,4.99972,0,0,1-4.5376-5.78223l26.30811-162.71972,1.7622-22.95118a4.97169,4.97169,0,0,1,3.91626-4.501L864.997,442.239a4.96759,4.96759,0,0,1,5.19531,2.06055l6.45215,9.43066a110.39937,110.39937,0,0,0,8.24487,10.50879c4.57788,5.21387,12.36157,16.79,13.05982,35.73535a126.60763,126.60763,0,0,0,1.93384,18.55371L921.18646,633.2888a4.99835,4.99835,0,0,1-4.43921,5.76464l-16.44848,1.2461a4.97917,4.97917,0,0,1-5.302-3.67969L865.82,528.11887a.99985.99985,0,0,0-1.93189.00293L833.66888,641.67258A5.00546,5.00546,0,0,1,828.83905,645.38645Z" transform="translate(-164.5 -211.5)" fill="#2f2e41"/><circle cx="710.48222" cy="132.43466" r="24.56103" fill="#a0616a"/><path d="M833.35272,456.22044l-.5083-35.07422c-1.8706-22.43262,8.064-34.21094,16.72778-40.13574a19.91868,19.91868,0,0,1,15.40332-2.94825l19.32959,4.17871a20.37249,20.37249,0,0,1,13.05494,9.29688,19.02079,19.02079,0,0,1,2.17236,15.00781,20.597,20.597,0,0,1-8.39966,11.50195c-16.60889,11.72461-17.779,31.41895-17.78906,31.61719l-.02027.40723Z" transform="translate(-164.5 -211.5)" fill="#5392f0"/><path d="M779.70607,435.71236a11.03582,11.03582,0,0,1-16.49656.47723c-9.68635-10.1588,6.14794-25.41277,15.87107-15.23211h0a10.67772,10.67772,0,0,1,.9524,1.12012l49.02807-1.21875,5.852-10.70313,17.98487,6.9834c-3.45266,5.35453-7.4174,26.36975-16.448,25.34668C835.26592,442.51757,780.91686,435.79873,779.70607,435.71236Z" transform="translate(-164.5 -211.5)" fill="#a0616a"/><path d="M845.2933,427.614,831.588,417.55593a4.50507,4.50507,0,0,1-.96546-6.2903l17.45369-23.78275a13,13,0,1,1,20.96106,15.38291L851.5836,426.64853A4.50508,4.50508,0,0,1,845.2933,427.614Z" transform="translate(-164.5 -211.5)" fill="#5392f0"/><path d="M869.01176,337.79623a40.09446,40.09446,0,0,1-10.71669,1.84545c-3.63658-.0412-7.41584-1.19679-9.87176-3.87912-3.48829-3.80988-3.44245-10.01671-.74274-14.42068s7.5457-7.14742,12.55624-8.40362,10.24431-1.197,15.40945-1.12736c6.13353-4.47189,15.077-3.79157,21.37083.4517s10.13982,11.43612,11.77255,18.8491,1.27644,15.10928.65736,22.67464c-.33925,4.14576.0081,9.52825,3.96877,10.79927,2.49945.8021,5.20054-.66948,6.99184-2.58829s3.04238-4.30285,4.91457-6.14282c3.98975-3.9211,10.39228-4.716,15.66331-2.84273s9.47564,6.0451,12.44017,10.789a37.53775,37.53775,0,0,1-42.62805,55.84512c-13.524-4.06069-23.73447-15.47462-30.30482-27.97341A92.38553,92.38553,0,0,1,870.47407,339.25Z" transform="translate(-164.5 -211.5)" fill="#2f2e41"/><path d="M1034.5,688.5h-869a1,1,0,0,1,0-2h869a1,1,0,0,1,0,2Z" transform="translate(-164.5 -211.5)" fill="#3f3d56"/></svg>