<svg xmlns="http://www.w3.org/2000/svg" data-name="Layer 1" width="500" height="380" viewBox="0 0 776.36327 516.12769" xmlns:xlink="http://www.w3.org/1999/xlink"><path d="M369.60519,659.41724a354.61344,354.61344,0,0,1-3.34307,45.56577c-.07321.53033-.153,1.06061-.2265,1.5909l-142.76578-.79771c-.41918-.52667-.83176-1.05967-1.23151-1.599-1.33287-1.785-2.58211-3.62078-3.72889-5.51985-5.512-9.149-8.03543-19.86061-5.50669-27.251l.04529-.11484a12.96837,12.96837,0,0,1,2.53106-4.3979c5.76547-6.4899,17.42265-5.40807,28.00131-.16965-9.48836-10.38608-17.04356-23.4917-17.61762-35.19-.56286-11.41043,5.40359-19.5617,11.87493-26.48886.21234-.229.42464-.45164.63694-.67423.103-.11452.21231-.22264.315-.33715,5.049-5.279,10.93533-10.483,19.45537-9.85348,9.34426.69163,19.70426,8.51849,26.96827,17.63889,7.264,9.114,12.09115,19.46763,16.984,29.57228,4.89911,10.09829,10.19953,20.4546,18.061,29.086-10.64788-13.46818-19.23287-28.792-22.40416-43.69548s-.38032-29.21737,9.10943-36.23636a22.1957,22.1957,0,0,1,9.72223-3.92287c.40938-.068.82526-.12328,1.24765-.17208,8.78485-.99954,19.2737,2.03876,28.19785,9.30129,9.828,7.99658,16.64178,19.85117,20.032,31.10478C369.35332,638.11025,369.7146,648.9441,369.60519,659.41724Z" transform="translate(-211.81837 -191.93615)" fill="#f2f2f2"/><path d="M276.19949,706.072l-2.73-.01526q-1.30021-.81289-2.61272-1.60675c-.54166-.3419-1.08964-.67108-1.63789-1.00665q-13.58292-8.29569-27.33571-15.91453-13.74027-7.62516-27.61872-14.5477a1.14416,1.14416,0,0,1-.65772-1.30813.32972.32972,0,0,1,.0455-.09563c.12905-.24226.41748-.343.83844-.136,1.13486.569,2.27627,1.13811,3.411,1.72q13.91636,7.041,27.71325,14.78485,13.7874,7.74051,27.41767,16.16433c.19105.11616.38238.23872.57344.35488C274.47266,705.00087,275.333,705.53641,276.19949,706.072Z" transform="translate(-211.81837 -191.93615)" fill="#fff"/><path d="M311.39881,706.26862l-1.68811-.00943c-.38074-.53282-.75492-1.06564-1.13566-1.5985q-13.41828-18.81645-26.83095-37.63289-21.96477-30.80544-43.91643-61.6108a1.08711,1.08711,0,0,1-.18994-.37193c-.12516-.45471.20884-.72139.63694-.67423a1.28239,1.28239,0,0,1,.892.56768q12.31463,17.27568,24.62306,34.53853,21.85044,30.65136,43.69465,61.29624c.92629,1.29682,1.85254,2.6,2.77882,3.89683C310.64389,705.203,311.02463,705.73584,311.39881,706.26862Z" transform="translate(-211.81837 -191.93615)" fill="#fff"/><path d="M349.00689,696.46541c-.08614,2.845-.27444,5.64458-.52036,8.41828q-.07142.79571-.14314,1.59136l-1.77116-.0099c.05416-.53039.10833-1.06082.15594-1.59128.37426-4.00711.63981-8.05954.67587-12.222a170.503,170.503,0,0,0-3.35664-34.36854,213.989,213.989,0,0,0-10.39593-35.70592,245.21142,245.21142,0,0,0-17.00927-35.32727.94358.94358,0,0,1-.15635-.6275c.07307-.50476.74517-.65446,1.24765-.17208a1.466,1.466,0,0,1,.25391.32113q1.22554,2.10735,2.40638,4.22726a245.04037,245.04037,0,0,1,16.27986,35.451,212.9772,212.9772,0,0,1,9.69189,35.75956A168.21242,168.21242,0,0,1,349.00689,696.46541Z" transform="translate(-211.81837 -191.93615)" fill="#fff"/><path d="M749.18163,477.93615h-167a14.69642,14.69642,0,0,1-9.60693-3.20507,1.00014,1.00014,0,0,1,1.21387-1.58985,12.6768,12.6768,0,0,0,8.39306,2.79492h167a15.017,15.017,0,0,0,15-15v-102a15.017,15.017,0,0,0-15-15h-167a15.017,15.017,0,0,0-15,15v60a1,1,0,0,1-2,0v-60a17.01917,17.01917,0,0,1,17-17h167a17.01917,17.01917,0,0,1,17,17v102A17.01916,17.01916,0,0,1,749.18163,477.93615Z" transform="translate(-211.81837 -191.93615)" fill="#3f3d56"/><path d="M971.18163,535.93615h-442a1,1,0,0,1,0-2h442a15.017,15.017,0,0,0,15-15v-310a15.017,15.017,0,0,0-15-15h-470a15.017,15.017,0,0,0-15,15v202a1,1,0,0,1-2,0v-202a17.01917,17.01917,0,0,1,17-17h470a17.01917,17.01917,0,0,1,17,17v310A17.01916,17.01916,0,0,1,971.18163,535.93615Z" transform="translate(-211.81837 -191.93615)" fill="#3f3d56"/><rect x="273.03649" y="32.57541" width="503" height="2" fill="#3f3d56"/><circle cx="292.03649" cy="19.53543" r="6" fill="#3f3d56"/><circle cx="309.28649" cy="19.53543" r="6" fill="#3f3d56"/><circle cx="326.53649" cy="19.53543" r="6" fill="#3f3d56"/><path d="M889.68163,292.93615h-310a15.5,15.5,0,0,1,0-31h310a15.5,15.5,0,0,1,0,31Zm-310-29a13.5,13.5,0,0,0,0,27h310a13.5,13.5,0,0,0,0-27Z" transform="translate(-211.81837 -191.93615)" fill="#3f3d56"/><path d="M887.68163,371.93615h-60a15.5,15.5,0,0,1,0-31h60a15.5,15.5,0,0,1,0,31Z" transform="translate(-211.81837 -191.93615)" fill="#5392f0"/><path d="M887.68163,423.93615h-60a15.5,15.5,0,0,1,0-31h60a15.5,15.5,0,0,1,0,31Z" transform="translate(-211.81837 -191.93615)" fill="#5392f0"/><path d="M887.68163,475.93615h-60a15.5,15.5,0,0,1,0-31h60a15.5,15.5,0,0,1,0,31Z" transform="translate(-211.81837 -191.93615)" fill="#5392f0"/><path d="M461.18163,485.51617a11.15287,11.15287,0,0,0-2.2998-.24,11.0406,11.0406,0,0,0-4.23.84,10.02072,10.02072,0,0,0-1.31006.66l-44.74024-20.08-1.25976-12.14-19.29-.51.12988,20.2a10.87571,10.87571,0,0,0,7.85987,10.34l52.32031,14.89c.11963.38.23.71.35986,1.02a10.98782,10.98782,0,0,0,6.54,6.16,10.86409,10.86409,0,0,0,3.62988.62006,10.4318,10.4318,0,0,0,2.29-.25,9.60852,9.60852,0,0,0,1.27-.36005v-20.8A11.35732,11.35732,0,0,0,461.18163,485.51617Z" transform="translate(-211.81837 -191.93615)" fill="#a0616a"/><polygon points="127.046 504.226 139.306 504.226 145.138 456.938 127.044 456.938 127.046 504.226" fill="#a0616a"/><path d="M336.23782,692.65877h38.53073a0,0,0,0,1,0,0v14.88687a0,0,0,0,1,0,0H351.12468a14.88686,14.88686,0,0,1-14.88686-14.88686v0A0,0,0,0,1,336.23782,692.65877Z" transform="translate(499.21995 1208.25203) rotate(179.99738)" fill="#2f2e41"/><polygon points="63.321 491.01 74.591 495.837 98.572 454.666 81.94 447.541 63.321 491.01" fill="#a0616a"/><path d="M269.6173,685.67567H308.148a0,0,0,0,1,0,0v14.88687a0,0,0,0,1,0,0H284.50415a14.88686,14.88686,0,0,1-14.88686-14.88686v0a0,0,0,0,1,0,0Z" transform="translate(69.71819 1252.058) rotate(-156.81376)" fill="#2f2e41"/><circle cx="157.35804" cy="173.43148" r="24.56103" fill="#a0616a"/><path d="M351.43226,684.60091l-13.4961-2.57129a4.47356,4.47356,0,0,1-3.63452-4.87891l8.94946-87.25879a3.5,3.5,0,0,0-6.699-1.73535l-39.07129,91.167a4.50038,4.50038,0,0,1-5.96387,2.33886l-10.9768-4.8789a4.48233,4.48233,0,0,1-2.44165-5.53516l26.72216-80.167a3.49915,3.49915,0,0,0,.15528-.69434L313.65,517.14a4.5,4.5,0,0,1,2.77515-3.64062l27.38842-11.126a4.50061,4.50061,0,0,1,4.83326.94434l34.57031,33.66113a4.4819,4.4819,0,0,1,1.27466,4.10058L356.68811,681.057a4.51655,4.51655,0,0,1-4.417,3.62305A4.46966,4.46966,0,0,1,351.43226,684.60091Z" transform="translate(-211.81837 -191.93615)" fill="#2f2e41"/><path d="M336.046,521.179c-4.78466-5.54-8.27661-8.05468-10.66479-7.6582-2.36963.38281-3.73657,3.69336-5.18408,7.19824-1.97559,4.78418-4.21485,10.207-9.73438,10.63086a4.64707,4.64707,0,0,1-4.56225-1.87011c-4.34156-6.457,6.072-27.82422,7.02343-29.74415l-.48828-101.06054a4.48918,4.48918,0,0,1,2.353-3.98535c28.6167-15.43164,67.25708,11.40625,74.71216,16.94433h0a4.4882,4.4882,0,0,1,1.81055,3.84863c-.89966,16.92579-5.387,102.32032-5.387,121.36915,0,5.27343-1.81884,8.624-5.40625,9.958a10.78141,10.78141,0,0,1-3.77441.61914C365.798,547.429,347.87073,534.87044,336.046,521.179Z" transform="translate(-211.81837 -191.93615)" fill="#ccc"/><path d="M375.98206,472.10677a4.45044,4.45044,0,0,1-2.0227-3.56641l-1.93848-45.26562a11.74737,11.74737,0,0,1,22.71191-4.69141l14.50733,38.0166a4.50483,4.50483,0,0,1-2.59986,5.8086l-26.58081,10.14355a4.4554,4.4554,0,0,1-4.07739-.44531Z" transform="translate(-211.81837 -191.93615)" fill="#ccc"/><path d="M308.43481,542.83494a10.74266,10.74266,0,0,1-1.72626-16.38192l-4.69019-104.90445,23.2018,2.732L322.52678,526.6617a10.80091,10.80091,0,0,1-14.092,16.17324Z" transform="translate(-211.81837 -191.93615)" fill="#a0616a"/><path d="M292.32361,449.48274a4.45083,4.45083,0,0,1-.61865-4.05371l14.32764-42.98242a11.74725,11.74725,0,0,1,22.89184,3.71485v40.69043a4.50508,4.50508,0,0,1-4.5,4.5H295.97425A4.45275,4.45275,0,0,1,292.32361,449.48274Z" transform="translate(-211.81837 -191.93615)" fill="#ccc"/><path d="M353.31536,381.88735a4.85261,4.85261,0,0,1-6.351-.31654c-5.26394-4.9204-9.70648-10.80395-11.95477-17.618-2.57622-7.80794-1.91812-16.95276,3.01544-23.53006,4.1706-5.56013,10.772-8.70128,17.27427-11.15688a28.271,28.271,0,0,1,7.96-2.06727,10.93658,10.93658,0,0,1,7.75447,2.17747,6.86771,6.86771,0,0,1,2.27546,7.397A25.84688,25.84688,0,0,1,385.0906,330.668a14.26707,14.26707,0,0,1,8.44017.34976c3.77088,1.55077,6.22036,5.33854,7.34911,9.25649a16.72441,16.72441,0,0,1,.21826,9.20913,11.14649,11.14649,0,0,1-5.70595,7.03232c-3.45,1.62536-7.54422,1.01187-11.15158-.22549s-7.02752-3.06328-10.75861-3.85259-8.039-.32876-10.67913,2.42332c-1.85922,1.93808-2.5913,4.66436-3.25629,7.26641l-3.45876,13.53391a16.88066,16.88066,0,0,1-2.15667,5.57368A3.33328,3.33328,0,0,1,353.31536,381.88735Z" transform="translate(-211.81837 -191.93615)" fill="#2f2e41"/><path d="M520.97167,465.36615v46.16l.62988.46v-46.55A4.50175,4.50175,0,0,0,520.97167,465.36615Zm66.96973-30.2-31.91992-23.17a10.84147,10.84147,0,0,0-15.10987,2.4l-18.66992,25.74-1.27,1.74v99.25a9.55144,9.55144,0,0,1-9.54,9.54h-5.2998l3.06982.62a10.39081,10.39081,0,0,0,2.1499.22,10.83649,10.83649,0,0,0,8.76026-4.46l1.2998-1.8,68.93018-94.98A10.83724,10.83724,0,0,0,587.9414,435.16613Zm1.37012,14.35-67.10987,92.47-.71.98-.06982.1a10.32494,10.32494,0,0,0,.17968-1.94v-97.95l.64014-.88,19.71-27.15a9.5575,9.5575,0,0,1,13.31983-2.12l31.91992,23.17A9.5518,9.5518,0,0,1,589.31152,449.51617Z" transform="translate(-211.81837 -191.93615)" fill="#ccc"/><path d="M555.36987,473.81506a8.436,8.436,0,0,1-4.97413-1.62256l-17.9375-13.0166a8.51043,8.51043,0,0,1-1.8872-11.87207l13.01684-17.9375a8.5001,8.5001,0,0,1,11.87183-1.88721l17.9375,13.0166a8.50971,8.50971,0,0,1,1.88721,11.87159l-13.01685,17.9375a8.4438,8.4438,0,0,1-5.54517,3.40283A8.61669,8.61669,0,0,1,555.36987,473.81506Z" transform="translate(-211.81837 -191.93615)" fill="#ccc"/><path d="M526.88329,515.12268a5.544,5.544,0,0,1-3.26831-1.06543l-3.145-2.28076V464.83313l.52979.03173a5.72588,5.72588,0,0,1,1.39429.25782,5.46014,5.46014,0,0,1,1.574.79785l22.64844,16.44092a5.58451,5.58451,0,0,1,1.23706,7.80273L531.418,512.8136a5.54042,5.54042,0,0,1-3.63965,2.2373A5.66381,5.66381,0,0,1,526.88329,515.12268Z" transform="translate(-211.81837 -191.93615)" fill="#e6e6e6" opacity="0.5"/><path d="M511.43163,410.73614H471.99169a10.82319,10.82319,0,0,0-10.81006,10.81v119.58a10.82314,10.82314,0,0,0,10.81006,10.81h39.43994a10.811,10.811,0,0,0,9.98-6.69,10.477,10.477,0,0,0,.6001-1.9,10.33657,10.33657,0,0,0,.18994-1.36,8.17969,8.17969,0,0,0,.04-.86v-119.58A10.82319,10.82319,0,0,0,511.43163,410.73614Zm9.54,130.39a9.55144,9.55144,0,0,1-9.54,9.54H471.99169a9.55113,9.55113,0,0,1-9.54-9.54v-119.58a9.55114,9.55114,0,0,1,9.54-9.54h39.43994a9.55144,9.55144,0,0,1,9.54,9.54Z" transform="translate(-211.81837 -191.93615)" fill="#3f3d56"/><path d="M502.79333,462.75354H480.63049a8.50958,8.50958,0,0,1-8.5-8.5V432.09045a8.50958,8.50958,0,0,1,8.5-8.5h22.16284a8.50948,8.50948,0,0,1,8.49988,8.5v22.16309A8.50948,8.50948,0,0,1,502.79333,462.75354Z" transform="translate(-211.81837 -191.93615)" fill="#5392f0"/><path d="M502.79333,512.36535H480.63049a8.50958,8.50958,0,0,1-8.5-8.5V481.70227a8.50958,8.50958,0,0,1,8.5-8.5h22.16284a8.50948,8.50948,0,0,1,8.49988,8.5v22.16308A8.50948,8.50948,0,0,1,502.79333,512.36535Z" transform="translate(-211.81837 -191.93615)" fill="#5392f0" opacity="0.5"/><path d="M491.71191,523.31616a8.27,8.27,0,1,0,8.26953,8.27A8.2799,8.2799,0,0,0,491.71191,523.31616Zm0,15.26a6.995,6.995,0,1,1,7-6.99A7.00535,7.00535,0,0,1,491.71191,538.57617Z" transform="translate(-211.81837 -191.93615)" fill="#3f3d56"/><path d="M470.20266,708.06385h-249.294a1.19069,1.19069,0,0,1,0-2.38137h249.294a1.19069,1.19069,0,0,1,0,2.38137Z" transform="translate(-211.81837 -191.93615)" fill="#3f3d56"/></svg>